<?xml version="1.0" encoding="UTF-8" standalone="no"?>
<svg
   xmlns:dc="http://purl.org/dc/elements/1.1/"
   xmlns:cc="http://creativecommons.org/ns#"
   xmlns:rdf="http://www.w3.org/1999/02/22-rdf-syntax-ns#"
   xmlns:svg="http://www.w3.org/2000/svg"
   xmlns="http://www.w3.org/2000/svg"
   version="1.1"
   id="svg2"
   viewBox="0 0 200 200"
   height="200"
   width="200">
  <metadata
     id="metadata18">
    <rdf:RDF>
      <cc:Work
         rdf:about="">
        <dc:format>image/svg+xml</dc:format>
        <dc:type
           rdf:resource="http://purl.org/dc/dcmitype/StillImage" />
        <dc:title>templates_mo</dc:title>
      </cc:Work>
    </rdf:RDF>
  </metadata>
  <defs
     id="defs16">
    <filter
       height="1.0067987"
       y="-0.0033993458"
       width="1.0076517"
       x="-0.0038258284"
       id="filter5761"
       style="color-interpolation-filters:sRGB">
      <feGaussianBlur
         id="feGaussianBlur5763"
         stdDeviation="0.29040816" />
    </filter>
  </defs>
  <title
     id="title4">templates_mo</title>
  <g
     id="g26668">
    <path
       style="opacity:1;fill:#000000;fill-opacity:1;fill-rule:evenodd;stroke:none;stroke-width:8;stroke-linecap:round;stroke-linejoin:bevel;stroke-miterlimit:4;stroke-dasharray:none;stroke-dashoffset:0;stroke-opacity:1;filter:url(#filter5761)"
       id="path5443"
       d="m 519.35814,330.70746 c -3.07551,5.32692 -82.63109,51.25836 -88.78209,51.25836 -6.151,0 -85.70659,-45.93144 -88.78209,-51.25836 -3.0755,-5.32693 -3.0755,-97.1898 0,-102.51673 3.0755,-5.32692 82.63109,-51.25836 88.78209,-51.25836 6.151,0 85.70659,45.93144 88.78209,51.25837 3.0755,5.32692 3.0755,97.18979 0,102.51672 z"
       transform="matrix(-0.83573559,0,0,-0.83611048,456.77754,332.7953)" />
    <path
       d="M 50.905925,102.93992 97.254851,123.26661 134.17119,102.19397 87.822301,81.867576 50.905925,102.94021 Z m 1.92674,-0.0779 44.373196,19.42894 19.503489,-11.12485 15.56368,-8.87758 L 87.870091,82.842441 52.833246,102.86232 Z"
       id="path6405"
       style="fill:#009688;fill-opacity:1;fill-rule:evenodd;stroke:#009688;stroke-width:3.60000014;stroke-linecap:round;stroke-linejoin:round;stroke-miterlimit:4;stroke-dasharray:none;stroke-opacity:1" />
    <path
       style="fill:#424242;fill-opacity:1;fill-rule:evenodd;stroke:#3f51b5;stroke-width:3.60000014;stroke-linecap:round;stroke-linejoin:round;stroke-miterlimit:4;stroke-dasharray:none;stroke-opacity:1"
       id="path8"
       d="M 62.759031,88.76637 109.10795,109.09306 146.0243,88.02043 99.675411,67.694022 62.759031,88.76667 Z m 1.926743,-0.0779 44.373196,19.42893 19.50349,-11.12485 15.56368,-8.87756 L 99.723201,68.668888 64.686354,88.68876 Z" />
    <path
       style="fill:#ff6f00;fill-opacity:1;fill-rule:evenodd;stroke:#ffc107;stroke-width:3.60000014;stroke-linecap:round;stroke-linejoin:round;stroke-miterlimit:4;stroke-dasharray:none;stroke-opacity:1"
       id="path10"
       d="M 68.727937,100.48937 115.07684,120.81606 151.9932,99.743414 105.6443,79.417304 68.727937,100.48965 Z m 1.926744,-0.0779 44.373179,19.42893 35.06718,-20.002436 -44.40295,-19.446115 -35.036829,20.019881 z" />
    <path
       d="M 40.768308,91.29848 87.117221,111.62517 124.03357,90.55252 77.684679,70.22641 40.768308,91.29876 Z m 1.92674,-0.0779 44.373193,19.42893 L 122.13541,90.64707 77.732469,71.200954 42.695628,91.22085 Z"
       id="path26658"
       style="fill:#e91e63;fill-opacity:1;fill-rule:evenodd;stroke:#e91e63;stroke-width:3.60000014;stroke-linecap:round;stroke-linejoin:round;stroke-miterlimit:4;stroke-dasharray:none;stroke-opacity:1" />
  </g>
</svg>
