<?xml version="1.0" encoding="UTF-8" standalone="no"?>
<svg
   xmlns:osb="http://www.openswatchbook.org/uri/2009/osb"
   xmlns:dc="http://purl.org/dc/elements/1.1/"
   xmlns:cc="http://creativecommons.org/ns#"
   xmlns:rdf="http://www.w3.org/1999/02/22-rdf-syntax-ns#"
   xmlns:svg="http://www.w3.org/2000/svg"
   xmlns="http://www.w3.org/2000/svg"
   xmlns:xlink="http://www.w3.org/1999/xlink"
   xmlns:sodipodi="http://sodipodi.sourceforge.net/DTD/sodipodi-0.dtd"
   xmlns:inkscape="http://www.inkscape.org/namespaces/inkscape"
   version="1.1"
   id="svg2"
   xml:space="preserve"
   enable-background="new 0 0 848 259.61"
   viewBox="0 0 848 259.61"
   y="0px"
   x="0px"
   inkscape:version="0.91 r13725"
   sodipodi:docname="material-iterations (copy).svg"><sodipodi:namedview
     pagecolor="#ffffff"
     bordercolor="#666666"
     borderopacity="1"
     objecttolerance="10"
     gridtolerance="10"
     guidetolerance="10"
     inkscape:pageopacity="0"
     inkscape:pageshadow="2"
     inkscape:window-width="2560"
     inkscape:window-height="1385"
     id="namedview53"
     showgrid="false"
     showborder="true"
     inkscape:showpageshadow="false"
     inkscape:zoom="0.70710678"
     inkscape:cx="309.48414"
     inkscape:cy="784.73108"
     inkscape:window-x="0"
     inkscape:window-y="27"
     inkscape:window-maximized="1"
     inkscape:current-layer="svg2" /><metadata
     id="metadata150"><rdf:RDF><cc:Work
         rdf:about=""><dc:format>image/svg+xml</dc:format><dc:type
           rdf:resource="http://purl.org/dc/dcmitype/StillImage" /><dc:title></dc:title></cc:Work></rdf:RDF></metadata><defs
     id="defs148" /><path
     style="fill:#00897b"
     id="path4"
     d="m 469.78578,204.0097 55.81,-13.74 c 10.02,-2.47 17.06,-11.4 17.06,-21.72 l 0,-27.9 c 15.23,-1.72 27.11,-14.67 27.11,-30.35 0,-15.679992 -11.88,-28.629992 -27.11,-30.349992 l 0,-26.03 c 0,-10.32 -7.04,-19.25 -17.06,-21.72 l -55.79,-13.74 c -1.74,-0.43 -3.51,0.64 -3.94,2.38 -0.43,1.74 0.63,3.5 2.37,3.93 l 55.56,13.74 c 7.11,1.75 11.86,8.09 11.86,15.41 l 0,26.04 c -15.17,1.77 -26.99,14.69 -26.99,30.329992 0,15.64 11.82,28.56 26.99,30.33 l 0,27.91 c 0,7.32 -4.75,13.66 -11.86,15.41 l -55.66,13.74 c -1.48,0.36 -2.42,1.69 -2.42,3.15 0,0.26 0.06,0.52 0.12,0.78 0.42,1.77 2.21,2.83 3.95,2.4 z m 43.75,-93.71 c 0,-14.159992 11.52,-25.669992 25.67,-25.669992 14.16,0 25.68,11.52 25.68,25.669992 0,14.16 -11.52,25.67 -25.68,25.67 -14.15,0.01 -25.67,-11.51 -25.67,-25.67 z"
     inkscape:connector-curvature="0" /><path
     style="fill:#00796b"
     id="path6"
     d="m 468.41794,22.399708 c 0.43,-1.74 -0.64,-3.5 -2.38,-3.93 l -55.92,-13.7400007 c -7.11,-1.75 -12.22,-8.09 -12.22,-15.4099993 l 0,-26.91 c 15.46,-1.49 27.6,-14.55 27.6,-30.4 0,-15.85 -12.13,-28.91 -27.6,-30.4 l 0,-26.910008 c 0,-7.32 5.11,-13.66 12.22,-15.41 l 55.84,-13.74 c 1.74,-0.43 2.84,-2.19 2.41,-3.93 -0.43,-1.74 -2.17,-2.81 -3.91,-2.38 l -55.66,13.74 c -10.02,2.47 -16.9,11.4 -16.9,21.72 l 0,26.920008 c -15.42,1.53 -27.5,14.58 -27.5,30.4 0,15.82 12.08,28.86 27.5,30.4 l 0,26.92 c 0,10.31999926 6.9,19.2499993 16.91,21.719999 l 55.72,13.720001 c 1.75,0.43 3.46,-0.64 3.89,-2.38 z m -99.15,-90.4 c 0,-14.16 11.52,-25.67 25.67,-25.67 14.15,0 25.67,11.52 25.67,25.67 0,14.16 -11.52,25.67 -25.67,25.67 -14.15,0 -25.67,-11.51 -25.67,-25.67 z"
     inkscape:connector-curvature="0" /><path
     style="fill:#00897b"
     id="path8"
     d="m 471.45867,379.45549 c 0.43,-1.75 -0.64,-3.5 -2.38,-3.93 l -55.92,-13.74 c -7.11,-1.75 -12.22,-8.09 -12.22,-15.41 l 0,-26.91 c 15.46,-1.49 27.6,-14.55 27.6,-30.4 0,-15.85 -12.13,-28.91 -27.6,-30.4 l 0,-26.91 c 0,-7.32 5.11,-13.66 12.22,-15.41 l 55.84,-13.74 c 1.74,-0.43 2.84,-2.19 2.41,-3.93 -0.43,-1.74 -2.17,-2.81 -3.91,-2.38 l -55.66,13.74 c -10.02,2.47 -16.9,11.4 -16.9,21.72 l 0,26.92 c -15.42,1.53 -27.5,14.58 -27.5,30.4 0,15.82 12.08,28.86 27.5,30.4 l 0,26.92 c 0,10.32 6.9,19.25 16.91,21.72 l 55.72,13.72 c 1.75,0.43 3.46,-0.64 3.89,-2.38 z m -99.15,-90.4 c 0,-14.16 11.52,-25.67 25.67,-25.67 14.15,0 25.67,11.52 25.67,25.67 0,14.16 -11.52,25.67 -25.67,25.67 -14.15,0 -25.67,-11.51 -25.67,-25.67 z"
     inkscape:connector-curvature="0" /><g
     id="g14"
     style="fill:#bcaaa4"
     transform="matrix(0,0.9752022,-1,0,598.50563,-317.91277)"><linearGradient
       id="SVGID_1_"
       gradientUnits="userSpaceOnUse"
       x1="92.319901"
       y1="129.2683"
       x2="851.25018"
       y2="129.2683"
       osb:paint="gradient"><stop
         offset="0"
         style="stop-color:#898989"
         id="stop17" /><stop
         offset="0.065"
         style="stop-color:#359AB1"
         id="stop19" /><stop
         offset="0.0793"
         style="stop-color:#229EBA"
         id="stop21" /><stop
         offset="0.0948"
         style="stop-color:#229EBA"
         id="stop23" /><stop
         offset="0.1891"
         style="stop-color:#229EBA"
         id="stop25" /><stop
         offset="0.2719"
         style="stop-color:#46ACBE"
         id="stop27" /><stop
         offset="0.3731"
         style="stop-color:#6DBBC2"
         id="stop29" /><stop
         offset="0.4261"
         style="stop-color:#7CC1C3"
         id="stop31" /><stop
         offset="0.6723"
         style="stop-color:#A477AA"
         id="stop33" /></linearGradient><path
       inkscape:connector-curvature="0"
       d="m 836.34,132.52 -740.77,0 c -1.79,0 -3.25,-1.46 -3.25,-3.25 0,-1.79 1.46,-3.25 3.25,-3.25 l 740.77,0 c 1.79,0 3.25,1.46 3.25,3.25 0,1.79 -1.46,3.25 -3.25,3.25 z"
       id="path35"
       style="fill:#bcaaa4" /></g><g
     id="g37"
     style="fill:#795548"
     transform="matrix(0,1.6975742,-1.7407408,0,199.28644,-1009.7513)"><g
       id="g39"
       style="fill:#795548"><g
         id="g41"
         style="fill:#795548"><defs
           id="defs43"><polygon
             id="SVGID_2_"
             points="848,129.27 833.97,121.17 833.97,137.37 " /></defs><clipPath
           id="SVGID_3_"><use
             xlink:href="#SVGID_2_"
             overflow="visible"
             id="use47"
             style="overflow:visible"
             x="0"
             y="0"
             width="100%"
             height="100%" /></clipPath><rect
           x="833.96997"
           y="121.17"
           clip-path="url(#SVGID_3_)"
           width="14.03"
           height="16.200001"
           id="rect49"
           style="fill:#795548" /></g></g></g><circle
     style="fill:#3f51b5"
     cx="-488.19202"
     cy="103.57518"
     r="60.383953"
     id="circle59"
     transform="matrix(0,1,-1,0,0,0)" /><path
     inkscape:connector-curvature="0"
     d="m -186.6023,-509.40509 c 0,-45.38768 36.93232,-82.32 82.32,-82.32 45.387672,0 82.319998,36.93232 82.319998,82.32 0,45.38767 -36.932326,82.32 -82.319998,82.32 -45.38768,0 -82.32,-36.93233 -82.32,-82.32 z m 120.847672,0 c 0,-21.21814 -17.309535,-38.52768 -38.527672,-38.52768 -21.21814,0 -38.52768,17.30954 -38.52768,38.52768 0,21.21814 17.30954,38.52767 38.52768,38.52767 21.218137,0 38.527672,-17.30953 38.527672,-38.52767 z"
     id="path61"
     style="fill:#3f51b5" /><g
     style="fill:#000000"
     id="g29489"
     transform="matrix(10.544207,0,0,10.544207,-309.33646,-300.30389)"><path
       id="path29479"
       d="M 0,0 24,0 24,24 0,24 Z"
       inkscape:connector-curvature="0"
       style="fill:none" /><path
       id="path29481"
       d="M 13.68125,5.1499997 9.9312498,10.15 l 2.8500002,3.8 -1.6,1.2 C 9.4912498,12.9 6.6812498,9.1499997 6.6812498,9.1499997 L 0.68124981,17.15 l 22.00000019,0 -9,-12.0000003 z"
       inkscape:connector-curvature="0"
       style="fill:#d7ccc8" /></g><path
     id="path29952"
     d="m -69.37125,-502.45187 c -4.25657,-21.59591 -23.22343,-37.80852 -46.00866,-37.80852 -18.09055,0 -33.80235,10.26591 -41.62697,25.28916 -18.8417,2.0031 -33.48935,17.9653 -33.48935,37.30773 0,20.7196 16.83858,37.55816 37.55816,37.55816 l 81.37596,0 c 17.27672,0 31.29844,-14.02172 31.29844,-31.29844 0,-16.5256 -12.83237,-29.92133 -29.10758,-31.04809 z"
     inkscape:connector-curvature="0"
     style="fill:#cfd8dc;stroke:none;stroke-width:0.36601922" /><g
     id="g29989"><path
       sodipodi:nodetypes="ccccccccccccccc"
       style="fill:none;stroke:#000000;stroke-width:6.4000001;stroke-linejoin:round;stroke-miterlimit:4;stroke-dasharray:none;stroke-opacity:1"
       inkscape:connector-curvature="0"
       d="m -185.04796,-736.4642 0,65.38311 28.19418,0 0,-65.38311 z m 56.38837,0 0,65.38311 28.19416,0 0,-65.38311 z m 56.388368,0 0,65.38311 28.194157,0 0,-65.38311 z"
       id="path29495" /></g><g
     transform="matrix(0,1,-1,0,594.25601,-316.54451)"
     style="fill:#009688"
     id="g130"><path
       style="fill:#a1887f"
       id="path132"
       d="m 245.43,193.61 -5.97,5.97 5.97,5.97 -2.56,2.56 -7.68,-8.53 7.68,-8.53 2.56,2.56 z m 13.65,5.97 -7.68,8.53 -2.56,-2.56 5.97,-5.97 -5.97,-5.97 2.56,-2.56 7.68,8.53 z"
       inkscape:connector-curvature="0" /></g><g
     transform="matrix(0,1,-1,0,596.63171,-315.60755)"
     id="g134"
     style="fill:#a1887f"><path
       style="fill:#a1887f"
       id="path136"
       d="m 421.66,49.59 c 0.55,0.55 0.83,1.24 0.85,2.08 0,0.55 -0.13,1.04 -0.4,1.47 -0.27,0.43 -0.62,0.78 -1.06,1.04 l 0,9.57 c 0.44,0.26 0.8,0.61 1.06,1.04 0.27,0.43 0.4,0.93 0.4,1.47 -0.02,0.84 -0.3,1.53 -0.85,2.08 -0.55,0.55 -1.24,0.83 -2.08,0.85 -0.84,-0.02 -1.53,-0.3 -2.08,-0.85 -0.55,-0.55 -0.83,-1.24 -0.85,-2.08 0,-0.55 0.13,-1.04 0.4,-1.47 0.27,-0.43 0.62,-0.78 1.06,-1.04 l 0,-9.57 c -0.44,-0.26 -0.8,-0.61 -1.06,-1.04 -0.27,-0.43 -0.4,-0.93 -0.4,-1.47 0.02,-0.84 0.3,-1.53 0.85,-2.08 0.55,-0.55 1.24,-0.83 2.08,-0.85 0.84,0.02 1.54,0.31 2.08,0.85 z m -1.05,3.11 c 0.27,-0.27 0.41,-0.62 0.41,-1.03 0,-0.41 -0.14,-0.75 -0.41,-1.03 -0.27,-0.28 -0.62,-0.41 -1.03,-0.41 -0.41,0 -0.75,0.14 -1.03,0.41 -0.28,0.27 -0.41,0.62 -0.41,1.03 0,0.41 0.14,0.75 0.41,1.03 0.27,0.27 0.62,0.42 1.03,0.43 0.42,-0.01 0.76,-0.15 1.03,-0.43 z m 0,14.63 c 0.27,-0.27 0.41,-0.62 0.41,-1.03 0,-0.41 -0.14,-0.75 -0.41,-1.03 -0.27,-0.28 -0.62,-0.41 -1.03,-0.41 -0.41,0 -0.75,0.14 -1.03,0.41 -0.28,0.27 -0.41,0.62 -0.41,1.03 0,0.41 0.14,0.75 0.41,1.03 0.27,0.27 0.62,0.42 1.03,0.43 0.42,-0.02 0.76,-0.16 1.03,-0.43 z m 13.2,-2.51 c 0.27,0.43 0.4,0.93 0.4,1.47 -0.02,0.84 -0.3,1.53 -0.85,2.08 -0.55,0.55 -1.24,0.83 -2.08,0.85 -0.84,-0.02 -1.53,-0.3 -2.08,-0.85 -0.55,-0.55 -0.83,-1.24 -0.85,-2.08 0,-0.55 0.13,-1.04 0.4,-1.47 0.27,-0.43 0.62,-0.78 1.06,-1.04 l 0,-9.18 c -0.02,-0.38 -0.17,-0.72 -0.46,-1.01 -0.29,-0.29 -0.62,-0.44 -1.01,-0.46 l -1.46,0 0,2.92 -4.39,-4.39 4.39,-4.39 0,2.92 c -0.03,0 0.03,0 0.18,0 l 1.28,0 c 1.14,0.05 2.15,0.5 3.02,1.37 0.87,0.87 1.33,1.87 1.37,3.02 l 0,5.42 c 0,2.27 0,3.53 0,3.77 0.46,0.27 0.81,0.62 1.08,1.05 z m -1.5,2.51 c 0.27,-0.27 0.41,-0.62 0.41,-1.03 0,-0.41 -0.14,-0.75 -0.41,-1.03 -0.27,-0.28 -0.62,-0.41 -1.03,-0.41 -0.41,0 -0.75,0.14 -1.03,0.41 -0.28,0.27 -0.41,0.62 -0.41,1.03 0,0.41 0.14,0.75 0.41,1.03 0.27,0.27 0.62,0.42 1.03,0.43 0.42,-0.02 0.76,-0.16 1.03,-0.43 z"
       inkscape:connector-curvature="0" /></g><g
     style="fill:#a1887f"
     id="g138"
     transform="matrix(0,1,-1,0,597.56867,-316.54451)"><path
       style="fill:#a1887f"
       id="path140"
       d="m 609.17,193.02 c 0.23,0.46 0.53,0.89 0.91,1.27 0.38,0.38 0.8,0.69 1.27,0.91 0.46,0.23 0.96,0.4 1.5,0.5 -0.47,0.82 -1.03,1.66 -1.66,2.51 -0.63,0.85 -1.35,1.68 -2.16,2.49 -1.02,1.01 -2,1.84 -2.95,2.49 l -0.75,4.09 -4.8,4.8 -0.14,-4.27 3.06,-3.06 c -1.11,0.52 -2,0.85 -2.67,1.01 -0.67,0.15 -1.01,0.22 -1.03,0.21 l -1.35,-1.35 c -0.02,-0.02 0.05,-0.35 0.18,-1.01 0.13,-0.66 0.46,-1.54 0.96,-2.65 l -2.99,3.02 -4.27,-0.14 4.8,-4.8 4.07,-0.75 c 0.65,-0.93 1.49,-1.91 2.51,-2.95 0.81,-0.81 1.63,-1.53 2.48,-2.16 0.85,-0.63 1.69,-1.18 2.52,-1.66 0.11,0.54 0.28,1.04 0.51,1.5 z m 4.94,-3.9 c 1.01,-0.3 1.53,-0.44 1.57,-0.42 0.01,0.03 -0.13,0.55 -0.42,1.57 -0.29,1.02 -0.82,2.3 -1.57,3.87 -1.04,-0.12 -1.84,-0.47 -2.41,-1.04 -0.57,-0.57 -0.92,-1.37 -1.04,-2.41 1.57,-0.75 2.86,-1.28 3.87,-1.57 z"
       inkscape:connector-curvature="0" /></g><g
     transform="matrix(0,1,-1,0,599.15843,-134.35568)"
     style="fill:#3f51b5"
     id="g4713"><circle
       style="fill:#3f51b5"
       cx="336.75"
       cy="129.27"
       r="7.5700002"
       id="circle4715" /><path
       inkscape:connector-curvature="0"
       d="m 336.75,139.59 c -5.69,0 -10.32,-4.63 -10.32,-10.32 0,-5.69 4.63,-10.32 10.32,-10.32 5.69,0 10.32,4.63 10.32,10.32 0,5.69 -4.63,10.32 -10.32,10.32 z m 0,-15.15 c -2.66,0 -4.83,2.17 -4.83,4.83 0,2.66 2.17,4.83 4.83,4.83 2.66,0 4.83,-2.17 4.83,-4.83 0,-2.66 -2.17,-4.83 -4.83,-4.83 z"
       id="path4717"
       style="fill:#3f51b5" /></g><g
     id="g4719"
     style="fill:#e91e63"
     transform="matrix(0,1,-1,0,449.15843,-166.35568)"><circle
       id="circle4721"
       r="7.5700002"
       cy="129.27"
       cx="336.75"
       style="fill:#e91e63" /><path
       style="fill:#e91e63"
       id="path4723"
       d="m 336.75,139.59 c -5.69,0 -10.32,-4.63 -10.32,-10.32 0,-5.69 4.63,-10.32 10.32,-10.32 5.69,0 10.32,4.63 10.32,10.32 0,5.69 -4.63,10.32 -10.32,10.32 z m 0,-15.15 c -2.66,0 -4.83,2.17 -4.83,4.83 0,2.66 2.17,4.83 4.83,4.83 2.66,0 4.83,-2.17 4.83,-4.83 0,-2.66 -2.17,-4.83 -4.83,-4.83 z"
       inkscape:connector-curvature="0" /></g><g
     transform="matrix(0,1,-1,0,598.15843,-492.35568)"
     style="fill:#004d40"
     id="g4725"><circle
       style="fill:#004d40"
       cx="336.75"
       cy="129.27"
       r="7.5700002"
       id="circle4727" /><path
       inkscape:connector-curvature="0"
       d="m 336.75,139.59 c -5.69,0 -10.32,-4.63 -10.32,-10.32 0,-5.69 4.63,-10.32 10.32,-10.32 5.69,0 10.32,4.63 10.32,10.32 0,5.69 -4.63,10.32 -10.32,10.32 z m 0,-15.15 c -2.66,0 -4.83,2.17 -4.83,4.83 0,2.66 2.17,4.83 4.83,4.83 2.66,0 4.83,-2.17 4.83,-4.83 0,-2.66 -2.17,-4.83 -4.83,-4.83 z"
       id="path4729"
       style="fill:#004d40" /></g><g
     id="g4747"
     style="fill:#004d40"
     transform="matrix(0,1,-1,0,600.15843,43.64432)"><circle
       id="circle4749"
       r="7.5700002"
       cy="129.27"
       cx="336.75"
       style="fill:#004d40" /><path
       style="fill:#004d40"
       id="path4751"
       d="m 336.75,139.59 c -5.69,0 -10.32,-4.63 -10.32,-10.32 0,-5.69 4.63,-10.32 10.32,-10.32 5.69,0 10.32,4.63 10.32,10.32 0,5.69 -4.63,10.32 -10.32,10.32 z m 0,-15.15 c -2.66,0 -4.83,2.17 -4.83,4.83 0,2.66 2.17,4.83 4.83,4.83 2.66,0 4.83,-2.17 4.83,-4.83 0,-2.66 -2.17,-4.83 -4.83,-4.83 z"
       inkscape:connector-curvature="0" /></g><g
     id="g29306"
     transform="translate(3880.0664,21.514145)"><path
       id="path29296"
       fill="transparent"
       d="m 0,0 512,0 0,512 -512,0 z"
       inkscape:connector-curvature="0"
       style="stroke:#ffffff;stroke-width:0" /><path
       id="path29298"
       d="m 226.878,16 0,243.274 a 120.023,120.023 0 0 0 30,236.71 119.996,119.996 0 0 0 29.998,-236.242 l 0,-93.747 59.998,0 0,-44.998 -59.998,0 0,-45 89.997,0 0,-59.997 -149.995,0 z m 25.312,299.99 a 60.01,60.01 0 0 1 2.343,0 59.998,59.998 0 0 1 2.343,0 59.998,59.998 0 0 1 0,119.996"
       inkscape:connector-curvature="0"
       style="fill:#1e0a03" /></g><g
     id="g29925"
     style="fill:#ffd740"
     transform="matrix(0.53433209,0,0,0.53433209,123.72128,-621.74159)"><g
       id="g29921"
       style="fill:#ffd740"
       transform="matrix(1.4022286,0,0,1.4022286,-978.74851,329.57987)"><g
         id="g29918"
         style="fill:#ffd740"><path
           style="fill:#ffd740"
           inkscape:connector-curvature="0"
           d="m 627.08375,-295.17189 35.0937,0 0,-43.86716 -35.0937,0 0,43.86716 z m 0,35.09373 35.0937,0 0,-26.32029 -35.0937,0 0,26.32029 z m 43.8672,0 35.0937,0 0,-43.86716 -35.0937,0 0,43.86716 z m 0,-78.96089 0,26.3203 35.0937,0 0,-26.3203 -35.0937,0 z"
           id="path29323" /></g></g></g><path
     id="path29334"
     d="m 1381.3546,88.517108 -70.1874,0 c -2.4127,0 -4.3867,1.97402 -4.3867,4.38672 l 0,26.320292 c 0,2.4127 1.974,4.38672 4.3867,4.38672 l 70.1874,0 c 2.4127,0 4.3867,-1.97402 4.3867,-4.38672 l 0,-26.320292 c 0,-2.4127 -1.974,-4.38672 -4.3867,-4.38672 z m -57.0273,26.320302 c -4.8473,0 -8.7734,-3.92611 -8.7734,-8.77344 0,-4.84732 3.9261,-8.773432 8.7734,-8.773432 4.8473,0 8.7735,3.926112 8.7735,8.773432 0,4.84733 -3.9262,8.77344 -8.7735,8.77344 z m 57.0273,-70.187462 -70.1874,0 c -2.4127,0 -4.3867,1.97402 -4.3867,4.38672 l 0,26.32029 c 0,2.4127 1.974,4.38672 4.3867,4.38672 l 70.1874,0 c 2.4127,0 4.3867,-1.97402 4.3867,-4.38672 l 0,-26.32029 c 0,-2.4127 -1.974,-4.38672 -4.3867,-4.38672 z m -57.0273,26.3203 c -4.8473,0 -8.7734,-3.92611 -8.7734,-8.77343 0,-4.84733 3.9261,-8.77344 8.7734,-8.77344 4.8473,0 8.7735,3.92611 8.7735,8.77344 0,4.84732 -3.9262,8.77343 -8.7735,8.77343 z"
     inkscape:connector-curvature="0" /><path
     id="path29345"
     d="m 1443.3734,156.73132 -18.2926,-18.29261 -6.2072,6.2072 24.4998,24.49982 52.6406,-52.6406 -6.2072,-6.20721 z"
     inkscape:connector-curvature="0" /><path
     id="path29356"
     d="m 1532.0574,230.40701 17.5469,0 0,-70.18746 -17.5469,0 0,70.18746 z m -26.3203,0 17.5469,0 0,-35.09373 -17.5469,0 0,35.09373 z m 52.6406,-48.25388 0,48.25388 17.5469,0 0,-48.25388 -17.5469,0 z"
     inkscape:connector-curvature="0" /><path
     id="path29367"
     d="m 1727.3454,238.45233 c -7.6328,0 -14.9587,3.55324 -19.7402,9.1463 -4.7815,-5.59306 -12.1073,-9.1463 -19.7402,-9.1463 -13.533,0 -24.1269,10.59392 -24.1269,24.12694 0,16.55985 14.9148,30.09287 37.5064,50.60076 l 6.3607,5.76854 6.3608,-5.76854 c 22.5915,-20.50789 37.5064,-34.04091 37.5064,-50.60076 0,-13.53302 -10.5939,-24.12694 -24.127,-24.12694 z m -19.2796,68.23536 -0.4606,0.41674 -0.4606,-0.41674 c -20.8588,-18.92867 -34.6331,-31.43081 -34.6331,-44.10842 0,-8.7515 6.602,-15.35351 15.3535,-15.35351 6.7555,0 13.3356,4.36478 15.6386,10.35265 l 8.1813,0 c 2.3249,-5.98787 8.905,-10.35265 15.6605,-10.35265 8.7515,0 15.3536,6.60201 15.3536,15.35351 0,12.67761 -13.7743,25.17975 -34.6332,44.10842 z"
     inkscape:connector-curvature="0" /><path
     id="path29378"
     d="m 1810.0146,388.40791 17.5469,0 0,-8.77343 -17.5469,0 0,8.77343 z m -30.707,-52.64059 0,8.77343 78.9609,0 0,-8.77343 -78.9609,0 z m 13.1602,30.70701 52.6406,0 0,-8.77343 -52.6406,0 0,8.77343 z"
     inkscape:connector-curvature="0" /><g
     style="fill:#000000"
     id="g29401"
     transform="matrix(4.3867159,0,0,4.3867159,2861.8545,227.26833)"><path
       id="path29389"
       d="M 10.18,9"
       inkscape:connector-curvature="0" /><path
       id="path29391"
       d="M 21,16 21,14 13,9 13,3.5 C 13,2.67 12.33,2 11.5,2 10.67,2 10,2.67 10,3.5 l 0,5.5 -8,5 0,2 8,-2.5 0,5.5 -2,1.5 0,1.5 3.5,-1 3.5,1 0,-1.5 -2,-1.5 0,-5.5 8,2.5 z"
       inkscape:connector-curvature="0" /><path
       id="path29393"
       d="M 0,0 24,0 24,24 0,24 Z"
       inkscape:connector-curvature="0"
       style="fill:none" /></g><path
     id="path29408"
     d="m 334.88628,96.568558 0,-11 -12,0 0,11 6,6.000002 6,-6.000002 z m -15,3 -11,0 0,12.000002 11,0 6,-6 -6,-6.000002 z m 3,15.000002 0,11 12,0 0,-11 -6,-6 -6,6 z m 15,-15.000002 -6,6.000002 6,6 11,0 0,-12.000002 -11,0 z"
     inkscape:connector-curvature="0" /><path
     id="path29419"
     d="m 669.21677,7.4332716 c -11.00956,0 -19.93969,8.9301304 -19.93969,19.9396904 0,14.95478 19.93969,37.03087 19.93969,37.03087 0,0 19.9397,-22.07609 19.9397,-37.03087 0,-11.00956 -8.93014,-19.9396904 -19.9397,-19.9396904 z m 0,27.0610204 c -3.93096,0 -7.12131,-3.19035 -7.12131,-7.12133 0,-3.93096 3.19035,-7.12131 7.12131,-7.12131 3.93097,0 7.12132,3.19035 7.12132,7.12131 0,3.93098 -3.19035,7.12133 -7.12132,7.12133 z"
     inkscape:connector-curvature="0"
     style="fill:#f44336" /><path
     id="path29430"
     d="m 236.9624,103.62161 c 2.32,0 4.2,1.88 4.2,4.2 0,2.32 -1.88,4.2 -4.2,4.2 -2.32,0 -4.2,-1.88 -4.2,-4.2 0,-2.32 1.88,-4.2 4.2,-4.2 m 0,18 c 5.95,0 12.2,2.91 12.2,4.2 l 0,2.2 -24.4,0 0,-2.2 c 0,-1.29 6.25,-4.2 12.2,-4.2 m 0,-21.800004 c -4.42,0 -8,3.580004 -8,8.000004 0,4.41 3.58,8 8,8 4.42,0 8,-3.59 8,-8 0,-4.42 -3.58,-8.000004 -8,-8.000004 z m 0,18.000004 c -5.33,0 -16,2.67 -16,8 l 0,6 32,0 0,-6 c 0,-5.33 -10.67,-8 -16,-8 z"
     inkscape:connector-curvature="0" /><path
     id="path29441"
     d="m 166.97578,37.750676 c -0.73,-1.02 -1.92,-1.69 -3.27,-1.69 l -22,0.02 c -2.21,0 -4,1.77 -4,3.98 l 0,20 c 0,2.21 1.79,3.98 4,3.98 l 22,0.02 c 1.35,0 2.54,-0.67 3.27,-1.69 l 8.73,-12.31 -8.73,-12.31 z m -3.27,22.31 -22,0 0,-20 22,0 7.09,10 -7.09,10 z"
     inkscape:connector-curvature="0" /><path
     id="path29452"
     d="m 264.8723,-93.05738 -2,0 0,-4 c 0,-5.52 -4.48,-10 -10,-10 -5.52,0 -10,4.48 -10,10 l 0,4 -2,0 c -2.21,0 -4,1.79 -4,4 l 0,20 c 0,2.21 1.79,4 4,4 l 24,0 c 2.21,0 4,-1.79 4,-4 l 0,-20 c 0,-2.21 -1.79,-4 -4,-4 z m -12,18 c -2.21,0 -4,-1.79 -4,-4 0,-2.21 1.79,-4 4,-4 2.21,0 4,1.79 4,4 0,2.21 -1.79,4 -4,4 z m 6.2,-18 -12.4,0 0,-4 c 0,-3.42 2.78,-6.2 6.2,-6.2 3.42,0 6.2,2.78 6.2,6.2 l 0,4 z"
     inkscape:connector-curvature="0" /><g
     id="g29473"
     transform="translate(242.99362,-16.386547)"><path
       id="path29463"
       d="M 0,0 24,0 24,24 0,24 Z"
       inkscape:connector-curvature="0"
       style="fill:none" /><path
       id="path29465"
       d="m 3,18 18,0 0,-2 -18,0 0,2 z m 0,-5 18,0 0,-2 -18,0 0,2 z M 3,6 3,8 21,8 21,6 3,6 Z"
       inkscape:connector-curvature="0" /></g><path
     id="path29506"
     d="m 213.63363,172.92594 c 0.08,-0.64 0.14,-1.29 0.14,-1.95 0,-0.66 -0.06,-1.31 -0.14,-1.95 l 4.23,-3.31 c 0.38,-0.3 0.49,-0.84 0.24,-1.28 l -4,-6.93 c -0.25,-0.43 -0.77,-0.61 -1.22,-0.43 l -4.98,2.01 c -1.03,-0.79 -2.16,-1.46 -3.38,-1.97 l -0.75,-5.3 c -0.09,-0.47 -0.5,-0.84 -1,-0.84 l -8,0 c -0.5,0 -0.91,0.37 -0.99,0.84 l -0.75,5.3 c -1.22,0.51 -2.35,1.17 -3.38,1.97 l -4.98,-2.01 c -0.45,-0.17 -0.97,0 -1.22,0.43 l -4,6.93 c -0.25,0.43 -0.14,0.97 0.24,1.28 l 4.22,3.31 c -0.08,0.64 -0.14,1.29 -0.14,1.95 0,0.66 0.06,1.31 0.14,1.95 l -4.22,3.31 c -0.38,0.3 -0.49,0.84 -0.24,1.28 l 4,6.93 c 0.25,0.43 0.77,0.61 1.22,0.43 l 4.98,-2.01 c 1.03,0.79 2.16,1.46 3.38,1.97 l 0.75,5.3 c 0.08,0.47 0.49,0.84 0.99,0.84 l 8,0 c 0.5,0 0.91,-0.37 0.99,-0.84 l 0.75,-5.3 c 1.22,-0.51 2.35,-1.17 3.38,-1.97 l 4.98,2.01 c 0.45,0.17 0.97,0 1.22,-0.43 l 4,-6.93 c 0.25,-0.43 0.14,-0.97 -0.24,-1.28 l -4.22,-3.31 z m -14.86,5.05 c -3.87,0 -7,-3.13 -7,-7 0,-3.87 3.13,-7 7,-7 3.87,0 7,3.13 7,7 0,3.87 -3.13,7 -7,7 z"
     inkscape:connector-curvature="0" /><path
     id="path29517"
     d="m -249.04179,-141.23252 c -2.21,0 -3.98,1.79 -3.98,4 0,2.21 1.77,4 3.98,4 2.21,0 4,-1.79 4,-4 0,-2.21 -1.79,-4 -4,-4 z m -12,-32 0,4 4,0 7.19,15.17 -2.7,4.9 c -0.31,0.58 -0.49,1.23 -0.49,1.93 0,2.21 1.79,4 4,4 l 24,0 0,-4 -23.15,0 c -0.28,0 -0.5,-0.22 -0.5,-0.5 0,-0.09 0.02,-0.17 0.06,-0.24 l 1.79,-3.26 14.9,0 c 1.5,0 2.81,-0.83 3.5,-2.06 l 7.15,-12.98 c 0.16,-0.28 0.25,-0.61 0.25,-0.96 0,-1.11 -0.9,-2 -2,-2 l -29.57,0 -1.9,-4 -6.53,0 z m 32,32 c -2.21,0 -3.98,1.79 -3.98,4 0,2.21 1.77,4 3.98,4 2.21,0 4,-1.79 4,-4 0,-2.21 -1.79,-4 -4,-4 z"
     inkscape:connector-curvature="0" /><path
     id="path29528"
     d="m 143.90679,129.38836 -1,0 0,-2 -2,0 0,2 -8,0 0,-2 -2,0 0,2 -1,0 c -1.11,0 -1.99,0.9 -1.99,2 l -0.01,14 c 0,1.1 0.89,2 2,2 l 14,0 c 1.1,0 2,-0.9 2,-2 l 0,-14 c 0,-1.1 -0.9,-2 -2,-2 z m 0,16 -14,0 0,-11 14,0 0,11 z m -12,-9 5,0 0,5 -5,0 z"
     inkscape:connector-curvature="0" /><path
     id="path29553"
     d="m 727.40996,-92.578695 -12,0 0,12 -4,0 0,-12 -12,0 0,-4.000001 12,0 0,-12.000004 4,0 0,12.000004 12,0 0,4.000001 z"
     inkscape:connector-curvature="0" /><path
     id="path29564"
     d="m -440.73195,147.35675 c -3.76417,-19.04223 -20.56451,-33.40694 -40.71386,-33.40694 -15.99769,0 -29.8642,9.07827 -36.8113,22.33588 -16.63428,1.79905 -29.6151,15.88698 -29.6151,33.01946 0,18.35029 14.8629,33.2132 33.2132,33.2132 l 71.96194,0 c 15.27807,0 27.67767,-12.3996 27.67767,-27.67767 0,-14.61381 -11.37552,-26.45985 -25.71255,-27.48393 z m -29.64279,16.41286 0,22.14214 -22.14213,0 0,-22.14214 -16.60661,0 27.67767,-27.67767 27.67767,27.67767 -16.6066,0 z"
     inkscape:connector-curvature="0" /><g
     style="fill:#000000"
     id="g29585"
     transform="translate(1084.4188,180.76078)"><path
       id="path29575"
       d="M 0,0 24,0 24,24 0,24 0,0 Z"
       inkscape:connector-curvature="0"
       style="fill:none" /><path
       id="path29577"
       d="M 5.5,22 5.5,14.5 4,14.5 4,9 C 4,7.9 4.9,7 6,7 l 3,0 c 1.1,0 2,0.9 2,2 l 0,5.5 -1.5,0 0,7.5 -4,0 z m 12.5,0 0,-6 3,0 -2.54,-7.63 C 18.18,7.55 17.42,7 16.56,7 l -0.12,0 c -0.86,0 -1.63,0.55 -1.9,1.37 L 12,16 l 3,0 0,6 3,0 z M 7.5,6 c 1.11,0 2,-0.89 2,-2 0,-1.11 -0.89,-2 -2,-2 -1.11,0 -2,0.89 -2,2 0,1.11 0.89,2 2,2 z m 9,0 c 1.11,0 2,-0.89 2,-2 0,-1.11 -0.89,-2 -2,-2 -1.11,0 -2,0.89 -2,2 0,1.11 0.89,2 2,2 z"
       inkscape:connector-curvature="0" /></g><path
     id="path29591"
     d="m 1195.1275,263.46953 -20,0 c -2.21,0 -3.98,1.79 -3.98,4 l -0.02,32 14,-6 14,6 0,-32 c 0,-2.21 -1.79,-4 -4,-4 z m 0,30 -10,-4.35 -10,4.35 0,-26 20,0 0,26 z"
     inkscape:connector-curvature="0" /><g
     style="fill:#ffffff"
     id="g29612"
     transform="matrix(2,0,0,2,1262.509,434.88704)"><path
       id="path29602"
       d="M 0,0 24,0 24,24 0,24 Z"
       inkscape:connector-curvature="0"
       style="fill:none" /><path
       id="path29604"
       d="M 19.35,10.04 C 18.67,6.59 15.64,4 12,4 9.11,4 6.6,5.64 5.35,8.04 2.34,8.36 0,10.91 0,14 c 0,3.31 2.69,6 6,6 l 13,0 c 2.76,0 5,-2.24 5,-5 0,-2.64 -2.05,-4.78 -4.65,-4.96 z"
       inkscape:connector-curvature="0" /></g><path
     id="path29634"
     d="m 1331.8749,583.43866 0,7.5 7.5,0 22.13,-22.13 -7.5,-7.5 -22.13,22.13 z m 35.41,-20.41 c 0.78,-0.78 0.78,-2.05 0,-2.83 l -4.67,-4.67 c -0.78,-0.78 -2.05,-0.78 -2.83,0 l -3.66,3.66 7.5,7.5 3.66,-3.66 z"
     inkscape:connector-curvature="0" /><path
     id="path29645"
     d="m 1357.2177,612.95919 16,0 0,-20 -16,0 0,20 z m 0,16 16,0 0,-12 -16,0 0,12 z m 20,0 16,0 0,-20 -16,0 0,20 z m 0,-36 0,12 16,0 0,-12 -16,0 z"
     inkscape:connector-curvature="0" /><path
     id="path29656"
     d="m 3463.8096,-980.40972 -70.1875,0 c -2.4127,0 -4.3867,1.97402 -4.3867,4.38672 l 0,26.32029 c 0,2.4127 1.974,4.38672 4.3867,4.38672 l 70.1875,0 c 2.4127,0 4.3867,-1.97402 4.3867,-4.38672 l 0,-26.32029 c 0,-2.4127 -1.974,-4.38672 -4.3867,-4.38672 z m -57.0273,26.3203 c -4.8474,0 -8.7735,-3.92612 -8.7735,-8.77344 0,-4.84732 3.9261,-8.77343 8.7735,-8.77343 4.8473,0 8.7734,3.92611 8.7734,8.77343 0,4.84732 -3.9261,8.77344 -8.7734,8.77344 z m 57.0273,-70.18748 -70.1875,0 c -2.4127,0 -4.3867,1.974 -4.3867,4.3867 l 0,26.32033 c 0,2.4127 1.974,4.38672 4.3867,4.38672 l 70.1875,0 c 2.4127,0 4.3867,-1.97402 4.3867,-4.38672 l 0,-26.32033 c 0,-2.4127 -1.974,-4.3867 -4.3867,-4.3867 z m -57.0273,26.32032 c -4.8474,0 -8.7735,-3.92612 -8.7735,-8.77342 0,-4.8473 3.9261,-8.7734 8.7735,-8.7734 4.8473,0 8.7734,3.9261 8.7734,8.7734 0,4.8473 -3.9261,8.77342 -8.7734,8.77342 z"
     inkscape:connector-curvature="0" /><path
     id="path29667"
     d="m 3428.5434,-953.88908 -18.2926,-18.29261 -6.2072,6.2072 24.4998,24.49981 52.6406,-52.64059 -6.2072,-6.20723 z"
     inkscape:connector-curvature="0" /><path
     id="path29678"
     d="m 3433.8404,-908.00912 17.5469,0 0,-70.18746 -17.5469,0 0,70.18746 z m -26.3203,0 17.5469,0 0,-35.09373 -17.5469,0 0,35.09373 z m 52.6406,-48.25388 0,48.25388 17.5469,0 0,-48.25388 -17.5469,0 z"
     inkscape:connector-curvature="0" /><path
     id="path29689"
     d="m 3490.1498,-955.55525 c -7.6329,0 -14.9587,3.55324 -19.7402,9.14631 -4.7815,-5.59307 -12.1073,-9.14631 -19.7402,-9.14631 -13.533,0 -24.127,10.59392 -24.127,24.12694 0,16.55985 14.9149,30.09287 37.5065,50.60077 l 6.3607,5.76853 6.3607,-5.76853 c 22.5916,-20.5079 37.5065,-34.04092 37.5065,-50.60077 0,-13.53302 -10.594,-24.12694 -24.127,-24.12694 z m -19.2796,68.23537 -0.4606,0.41674 -0.4606,-0.41674 c -20.8588,-18.92868 -34.6331,-31.43082 -34.6331,-44.10843 0,-8.7515 6.602,-15.3535 15.3535,-15.3535 6.7555,0 13.3356,4.36478 15.6386,10.35265 l 8.1812,0 c 2.325,-5.98787 8.9051,-10.35265 15.6606,-10.35265 8.7515,0 15.3535,6.602 15.3535,15.3535 0,12.67761 -13.7743,25.17975 -34.6331,44.10843 z"
     inkscape:connector-curvature="0" /><path
     id="path29700"
     d="m 3461.6362,-833.39538 17.5468,0 0,-8.77344 -17.5468,0 0,8.77344 z m -30.707,-52.6406 0,8.77344 78.9608,0 0,-8.77344 -78.9608,0 z m 13.1601,30.70702 52.6406,0 0,-8.77344 -52.6406,0 0,8.77344 z"
     inkscape:connector-curvature="0" /><g
     style="fill:#000000"
     id="g29723"
     transform="matrix(4.3867159,0,0,4.3867159,3417.769,-662.19478)"><path
       id="path29711"
       d="M 10.18,9"
       inkscape:connector-curvature="0" /><path
       id="path29713"
       d="M 21,16 21,14 13,9 13,3.5 C 13,2.67 12.33,2 11.5,2 10.67,2 10,2.67 10,3.5 l 0,5.5 -8,5 0,2 8,-2.5 0,5.5 -2,1.5 0,1.5 3.5,-1 3.5,1 0,-1.5 -2,-1.5 0,-5.5 8,2.5 z"
       inkscape:connector-curvature="0" /><path
       id="path29715"
       d="M 0,0 24,0 24,24 0,24 Z"
       inkscape:connector-curvature="0"
       style="fill:none" /></g><path
     id="path29730"
     d="m 3525.2633,-462.52008 0,-24.12694 -26.3203,0 0,24.12694 13.1601,13.16015 13.1602,-13.16015 z m -32.9004,6.58007 -24.1269,0 0,26.3203 24.1269,0 13.1602,-13.16015 -13.1602,-13.16015 z m 6.5801,32.90037 0,24.12694 26.3203,0 0,-24.12694 -13.1602,-13.16015 -13.1601,13.16015 z m 32.9004,-32.90037 -13.1602,13.16015 13.1602,13.16015 24.1269,0 0,-26.3203 -24.1269,0 z"
     inkscape:connector-curvature="0" /><path
     id="path29312"
     d="m 755.39701,-290.03716 0,30.00496 30.00498,0 88.53459,-88.5346 -30.00498,-30.00498 -88.53459,88.53462 z m 141.66336,-81.65348 c 3.12048,-3.12052 3.12048,-8.20136 0,-11.32188 l -18.68311,-18.68308 c -3.12048,-3.12052 -8.20138,-3.12052 -11.32186,0 l -14.64244,14.64242 30.00498,30.00497 14.64243,-14.64243 z"
     inkscape:connector-curvature="0" /><path
     id="path29954"
     d="m -87.385525,-469.51833 c 2.15294,-10.92304 11.74622,-19.12323 23.270806,-19.12323 9.150029,0 17.09693,5.1924 21.05455,12.79103 9.529957,1.01316 16.938623,9.0867 16.938623,18.86994 0,10.47979 -8.516801,18.99659 -18.99658,18.99659 l -41.159271,0 c -8.738428,0 -15.830483,-7.09206 -15.830483,-15.83048 0,-8.35851 6.490493,-15.13395 14.722355,-15.70385 z"
     inkscape:connector-curvature="0"
     style="fill:#bdbdbd;stroke:none;stroke-width:0.36601922" /><path
     style="fill:#eceff1"
     inkscape:connector-curvature="0"
     d="m -379.26356,-883.44134 0,22.01388 9.43452,0 0,-22.01388 -9.43452,0 z m 18.86904,0 0,22.01388 9.43451,0 0,-22.01388 -9.43451,0 z m -25.15872,37.73808 59.75195,0 0,-9.43452 -59.75195,0 0,9.43452 z m 44.02776,-37.73808 0,22.01388 9.43451,0 0,-22.01388 -9.43451,0 z m -14.15178,-28.30355 -29.87598,15.72419 0,6.28968 59.75195,0 0,-6.28968 -29.87597,-15.72419 z"
     id="path29976" /></svg>