<svg xmlns="http://www.w3.org/2000/svg" width="1920" height="1080"><path d="M228,1394L-88,1341L572,1474Z" fill="#74a367" stroke="#74a367" stroke-width="1.51"/><path d="M-88,1341L-351,1304L572,1474Z" fill="#7da96e" stroke="#7da96e" stroke-width="1.51"/><path d="M1560,1452L1425,1532L1934,1418Z" fill="#156e3b" stroke="#156e3b" stroke-width="1.51"/><path d="M976,-491L1257,-447L1958,-458Z" fill="#a2d29a" stroke="#a2d29a" stroke-width="1.51"/><path d="M1934,1418L1425,1532L2242,1484Z" fill="#0b6435" stroke="#0b6435" stroke-width="1.51"/><path d="M2050,835L2031,1273L2318,857Z" fill="#18773f" stroke="#18773f" stroke-width="1.51"/><path d="M1829,441L1846,581L2370,655Z" fill="#449757" stroke="#449757" stroke-width="1.51"/><path d="M1849,181L1829,441L2379,187Z" fill="#64a462" stroke="#64a462" stroke-width="1.51"/><path d="M1829,441L2370,655L2379,187Z" fill="#509458" stroke="#509458" stroke-width="1.51"/><path d="M2318,857L2031,1273L2383,1241Z" fill="#0f6a38" stroke="#0f6a38" stroke-width="1.51"/><path d="M2370,655L2318,857L2383,1241Z" fill="#1b713e" stroke="#1b713e" stroke-width="1.51"/><path d="M2379,187L2370,655L2383,1241Z" fill="#2f7e48" stroke="#2f7e48" stroke-width="1.51"/><path d="M1946,-22L2261,27L2398,-232Z" fill="#7ba56b" stroke="#7ba56b" stroke-width="1.51"/><path d="M1958,-458L1946,-22L2398,-232Z" fill="#86af75" stroke="#86af75" stroke-width="1.51"/><path d="M2261,27L2379,187L2398,-232Z" fill="#739c66" stroke="#739c66" stroke-width="1.51"/><path d="M2379,187L2383,1241L2398,-232Z" fill="#4f8b55" stroke="#4f8b55" stroke-width="1.51"/><path d="M2261,27L1849,181L2379,187Z" fill="#6da164" stroke="#6da164" stroke-width="1.51"/><path d="M2031,1273L2242,1484L2383,1241Z" fill="#005f33" stroke="#005f33" stroke-width="1.51"/><path d="M2050,835L2318,857L2370,655Z" fill="#268147" stroke="#268147" stroke-width="1.51"/><path d="M1846,581L2050,835L2370,655Z" fill="#348d4f" stroke="#348d4f" stroke-width="1.51"/><path d="M1946,-22L1849,181L2261,27Z" fill="#76ab6a" stroke="#76ab6a" stroke-width="1.51"/><path d="M2031,1273L1934,1418L2242,1484Z" fill="#006235" stroke="#006235" stroke-width="1.51"/><path d="M1137,1438L572,1474L1425,1532Z" fill="#3a864f" stroke="#3a864f" stroke-width="1.51"/><path d="M1795,384L1829,441L1849,181Z" fill="#63a863" stroke="#63a863" stroke-width="1.51"/><path d="M1257,-447L1803,-364L1958,-458Z" fill="#96c28c" stroke="#96c28c" stroke-width="1.51"/><path d="M1803,-364L1946,-22L1958,-458Z" fill="#8db77b" stroke="#8db77b" stroke-width="1.51"/><path d="M1846,581L1614,945L2050,835Z" fill="#2f924e" stroke="#2f924e" stroke-width="1.51"/><path d="M1677,1174L2031,1273L2050,835Z" fill="#18793e" stroke="#18793e" stroke-width="1.51"/><path d="M1614,945L1677,1174L2050,835Z" fill="#258645" stroke="#258645" stroke-width="1.51"/><path d="M1803,-364L1662,-148L1946,-22Z" fill="#8cba78" stroke="#8cba78" stroke-width="1.51"/><path d="M1677,1174L1934,1418L2031,1273Z" fill="#0d703a" stroke="#0d703a" stroke-width="1.51"/><path d="M1662,-148L1849,181L1946,-22Z" fill="#81b570" stroke="#81b570" stroke-width="1.51"/><path d="M1677,1174L1560,1452L1934,1418Z" fill="#13723b" stroke="#13723b" stroke-width="1.51"/><path d="M1425,594L1406,791L1614,945Z" fill="#3ea458" stroke="#3ea458" stroke-width="1.51"/><path d="M1829,441L1425,594L1846,581Z" fill="#50a55d" stroke="#50a55d" stroke-width="1.51"/><path d="M1425,594L1614,945L1846,581Z" fill="#40a057" stroke="#40a057" stroke-width="1.51"/><path d="M1432,121L1795,384L1849,181Z" fill="#71b269" stroke="#71b269" stroke-width="1.51"/><path d="M1662,-148L1432,121L1849,181Z" fill="#83bb72" stroke="#83bb72" stroke-width="1.51"/><path d="M1795,384L1425,594L1829,441Z" fill="#58a860" stroke="#58a860" stroke-width="1.51"/><path d="M1257,-447L1662,-148L1803,-364Z" fill="#99c788" stroke="#99c788" stroke-width="1.51"/><path d="M1432,121L1425,594L1795,384Z" fill="#69b469" stroke="#69b469" stroke-width="1.51"/><path d="M1257,-447L1314,-188L1662,-148Z" fill="#9ecf89" stroke="#9ecf89" stroke-width="1.51"/><path d="M1614,945L1383,1175L1677,1174Z" fill="#278947" stroke="#278947" stroke-width="1.51"/><path d="M1383,1175L1560,1452L1677,1174Z" fill="#1f8043" stroke="#1f8043" stroke-width="1.51"/><path d="M1314,-188L1432,121L1662,-148Z" fill="#92c87e" stroke="#92c87e" stroke-width="1.51"/><path d="M1406,791L1383,1175L1614,945Z" fill="#32964f" stroke="#32964f" stroke-width="1.51"/><path d="M1112,251L1425,594L1432,121Z" fill="#77c274" stroke="#77c274" stroke-width="1.51"/><path d="M1383,1175L1425,1532L1560,1452Z" fill="#1f7d43" stroke="#1f7d43" stroke-width="1.51"/><path d="M1191,1076L1383,1175L1406,791Z" fill="#359a52" stroke="#359a52" stroke-width="1.51"/><path d="M1383,1175L1137,1438L1425,1532Z" fill="#258548" stroke="#258548" stroke-width="1.51"/><path d="M1067,565L1406,791L1425,594Z" fill="#55b366" stroke="#55b366" stroke-width="1.51"/><path d="M1112,251L1067,565L1425,594Z" fill="#6fc073" stroke="#6fc073" stroke-width="1.51"/><path d="M1314,-188L1108,-65L1432,121Z" fill="#99d184" stroke="#99d184" stroke-width="1.51"/><path d="M1108,-65L1112,251L1432,121Z" fill="#92cf81" stroke="#92cf81" stroke-width="1.51"/><path d="M1041,923L1191,1076L1406,791Z" fill="#44a55b" stroke="#44a55b" stroke-width="1.51"/><path d="M1067,565L1041,923L1406,791Z" fill="#52b365" stroke="#52b365" stroke-width="1.51"/><path d="M1191,1076L1137,1438L1383,1175Z" fill="#32914f" stroke="#32914f" stroke-width="1.51"/><path d="M976,-491L1108,-65L1257,-447Z" fill="#b1dc9b" stroke="#b1dc9b" stroke-width="1.51"/><path d="M1257,-447L1108,-65L1314,-188Z" fill="#a8d78e" stroke="#a8d78e" stroke-width="1.51"/><path d="M976,-491L834,-348L1108,-65Z" fill="#b9e19d" stroke="#b9e19d" stroke-width="1.51"/><path d="M941,1058L1137,1438L1191,1076Z" fill="#409855" stroke="#409855" stroke-width="1.51"/><path d="M1041,923L941,1058L1191,1076Z" fill="#4aa45c" stroke="#4aa45c" stroke-width="1.51"/><path d="M703,786L1041,923L1067,565Z" fill="#64bb6d" stroke="#64bb6d" stroke-width="1.51"/><path d="M717,637L703,786L1067,565Z" fill="#76c476" stroke="#76c476" stroke-width="1.51"/><path d="M834,-348L805,-134L1108,-65Z" fill="#b9e298" stroke="#b9e298" stroke-width="1.51"/><path d="M805,-134L713,198L1108,-65Z" fill="#b1de91" stroke="#b1de91" stroke-width="1.51"/><path d="M1108,-65L713,198L1112,251Z" fill="#9fd789" stroke="#9fd789" stroke-width="1.51"/><path d="M713,198L1067,565L1112,251Z" fill="#8dcf81" stroke="#8dcf81" stroke-width="1.51"/><path d="M941,1058L709,1295L1137,1438Z" fill="#4a9959" stroke="#4a9959" stroke-width="1.51"/><path d="M709,1295L572,1474L1137,1438Z" fill="#4f9458" stroke="#4f9458" stroke-width="1.51"/><path d="M39,-462L231,-321L976,-491Z" fill="#e0f2b8" stroke="#e0f2b8" stroke-width="1.51"/><path d="M713,198L717,637L1067,565Z" fill="#8ace7f" stroke="#8ace7f" stroke-width="1.51"/><path d="M231,-321L834,-348L976,-491Z" fill="#cfebae" stroke="#cfebae" stroke-width="1.51"/><path d="M703,786L941,1058L1041,923Z" fill="#5db166" stroke="#5db166" stroke-width="1.51"/><path d="M713,198L541,519L717,637Z" fill="#98d485" stroke="#98d485" stroke-width="1.51"/><path d="M231,-321L612,-218L834,-348Z" fill="#d5eea9" stroke="#d5eea9" stroke-width="1.51"/><path d="M574,1005L709,1295L941,1058Z" fill="#5ea861" stroke="#5ea861" stroke-width="1.51"/><path d="M703,786L574,1005L941,1058Z" fill="#67b469" stroke="#67b469" stroke-width="1.51"/><path d="M612,-218L713,198L805,-134Z" fill="#bfe598" stroke="#bfe598" stroke-width="1.51"/><path d="M612,-218L805,-134L834,-348Z" fill="#c7e89f" stroke="#c7e89f" stroke-width="1.51"/><path d="M463,351L541,519L713,198Z" fill="#a7da8b" stroke="#a7da8b" stroke-width="1.51"/><path d="M231,-321L398,-186L612,-218Z" fill="#ddf1a9" stroke="#ddf1a9" stroke-width="1.51"/><path d="M398,-186L361,165L612,-218Z" fill="#d1eda1" stroke="#d1eda1" stroke-width="1.51"/><path d="M612,-218L361,165L713,198Z" fill="#c3e798" stroke="#c3e798" stroke-width="1.51"/><path d="M541,519L703,786L717,637Z" fill="#85ca7b" stroke="#85ca7b" stroke-width="1.51"/><path d="M574,1005L572,1474L709,1295Z" fill="#62a361" stroke="#62a361" stroke-width="1.51"/><path d="M361,165L463,351L713,198Z" fill="#b6e092" stroke="#b6e092" stroke-width="1.51"/><path d="M228,1394L572,1474L574,1005Z" fill="#6aa565" stroke="#6aa565" stroke-width="1.51"/><path d="M541,519L263,729L703,786Z" fill="#8ccd7e" stroke="#8ccd7e" stroke-width="1.51"/><path d="M263,729L413,968L703,786Z" fill="#82c577" stroke="#82c577" stroke-width="1.51"/><path d="M413,968L574,1005L703,786Z" fill="#75bb70" stroke="#75bb70" stroke-width="1.51"/><path d="M413,968L228,1394L574,1005Z" fill="#75b16b" stroke="#75b16b" stroke-width="1.51"/><path d="M165,1019L228,1394L413,968Z" fill="#7db46e" stroke="#7db46e" stroke-width="1.51"/><path d="M463,351L191,509L541,519Z" fill="#a7da8c" stroke="#a7da8c" stroke-width="1.51"/><path d="M191,509L263,729L541,519Z" fill="#9fd688" stroke="#9fd688" stroke-width="1.51"/><path d="M82,-123L361,165L398,-186Z" fill="#daf0a4" stroke="#daf0a4" stroke-width="1.51"/><path d="M361,165L191,509L463,351Z" fill="#b6e192" stroke="#b6e192" stroke-width="1.51"/><path d="M263,729L165,1019L413,968Z" fill="#88c478" stroke="#88c478" stroke-width="1.51"/><path d="M231,-321L82,-123L398,-186Z" fill="#e6f5ac" stroke="#e6f5ac" stroke-width="1.51"/><path d="M-163,206L191,509L361,165Z" fill="#c6e89b" stroke="#c6e89b" stroke-width="1.51"/><path d="M82,-123L-163,206L361,165Z" fill="#daf0a4" stroke="#daf0a4" stroke-width="1.51"/><path d="M-466,-152L-283,-224L39,-462Z" fill="#f9fdc3" stroke="#f9fdc3" stroke-width="1.51"/><path d="M165,1019L-88,1341L228,1394Z" fill="#80b070" stroke="#80b070" stroke-width="1.51"/><path d="M191,509L-111,715L263,729Z" fill="#a4d78a" stroke="#a4d78a" stroke-width="1.51"/><path d="M-111,715L165,1019L263,729Z" fill="#96ce82" stroke="#96ce82" stroke-width="1.51"/><path d="M-163,206L-97,568L191,509Z" fill="#bfe49a" stroke="#bfe49a" stroke-width="1.51"/><path d="M-97,568L-111,715L191,509Z" fill="#aedc91" stroke="#aedc91" stroke-width="1.51"/><path d="M39,-462L82,-123L231,-321Z" fill="#eef8b7" stroke="#eef8b7" stroke-width="1.51"/><path d="M-174,1228L-88,1341L165,1019Z" fill="#88b574" stroke="#88b574" stroke-width="1.51"/><path d="M-186,-67L-163,206L82,-123Z" fill="#e7f6ad" stroke="#e7f6ad" stroke-width="1.51"/><path d="M-111,715L-174,1228L165,1019Z" fill="#92c37d" stroke="#92c37d" stroke-width="1.51"/><path d="M39,-462L-283,-224L82,-123Z" fill="#f4fbb9" stroke="#f4fbb9" stroke-width="1.51"/><path d="M-283,-224L-186,-67L82,-123Z" fill="#f1fab4" stroke="#f1fab4" stroke-width="1.51"/><path d="M-438,1050L-174,1228L-111,715Z" fill="#97c584" stroke="#97c584" stroke-width="1.51"/><path d="M-396,668L-475,912L-111,715Z" fill="#a6d697" stroke="#a6d697" stroke-width="1.51"/><path d="M-475,912L-438,1050L-111,715Z" fill="#9ece90" stroke="#9ece90" stroke-width="1.51"/><path d="M-163,206L-371,240L-97,568Z" fill="#ceeba5" stroke="#ceeba5" stroke-width="1.51"/><path d="M-371,240L-396,668L-97,568Z" fill="#bfe4a3" stroke="#bfe4a3" stroke-width="1.51"/><path d="M-396,668L-111,715L-97,568Z" fill="#afdb96" stroke="#afdb96" stroke-width="1.51"/><path d="M-174,1228L-351,1304L-88,1341Z" fill="#88b179" stroke="#88b179" stroke-width="1.51"/><path d="M-186,-67L-371,240L-163,206Z" fill="#e1f3af" stroke="#e1f3af" stroke-width="1.51"/><path d="M-466,-152L-371,240L-186,-67Z" fill="#ecf8ba" stroke="#ecf8ba" stroke-width="1.51"/><path d="M-438,1050L-351,1304L-174,1228Z" fill="#8eb882" stroke="#8eb882" stroke-width="1.51"/><path d="M-283,-224L-466,-152L-186,-67Z" fill="#f4fbc0" stroke="#f4fbc0" stroke-width="1.51"/><path d="M-475,912L-396,668L-371,240Z" fill="#b6dfa5" stroke="#b6dfa5" stroke-width="1.51"/><path d="M-466,-152L-475,912L-371,240Z" fill="#d1ebb3" stroke="#d1ebb3" stroke-width="1.51"/></svg>