<svg xmlns="http://www.w3.org/2000/svg" width="1920" height="1080"><path d="M228,1394L-88,1341L572,1474Z" fill="#6ea381" stroke="#6ea381" stroke-width="1.51"/><path d="M-88,1341L-351,1304L572,1474Z" fill="#76a886" stroke="#76a886" stroke-width="1.51"/><path d="M1560,1452L1425,1532L1934,1418Z" fill="#157137" stroke="#157137" stroke-width="1.51"/><path d="M976,-491L1257,-447L1958,-458Z" fill="#9ed1b3" stroke="#9ed1b3" stroke-width="1.51"/><path d="M1934,1418L1425,1532L2242,1484Z" fill="#09682d" stroke="#09682d" stroke-width="1.51"/><path d="M2050,835L2031,1273L2318,857Z" fill="#197c3d" stroke="#197c3d" stroke-width="1.51"/><path d="M1829,441L1846,581L2370,655Z" fill="#3d9867" stroke="#3d9867" stroke-width="1.51"/><path d="M1849,181L1829,441L2379,187Z" fill="#5ba47a" stroke="#5ba47a" stroke-width="1.51"/><path d="M1829,441L2370,655L2379,187Z" fill="#47946a" stroke="#47946a" stroke-width="1.51"/><path d="M2318,857L2031,1273L2383,1241Z" fill="#0e6e31" stroke="#0e6e31" stroke-width="1.51"/><path d="M2370,655L2318,857L2383,1241Z" fill="#1b743e" stroke="#1b743e" stroke-width="1.51"/><path d="M2379,187L2370,655L2383,1241Z" fill="#2b7e51" stroke="#2b7e51" stroke-width="1.51"/><path d="M1946,-22L2261,27L2398,-232Z" fill="#74a584" stroke="#74a584" stroke-width="1.51"/><path d="M1958,-458L1946,-22L2398,-232Z" fill="#7eae8c" stroke="#7eae8c" stroke-width="1.51"/><path d="M2261,27L2379,187L2398,-232Z" fill="#6c9b7d" stroke="#6c9b7d" stroke-width="1.51"/><path d="M2379,187L2383,1241L2398,-232Z" fill="#458966" stroke="#458966" stroke-width="1.51"/><path d="M2261,27L1849,181L2379,187Z" fill="#65a17c" stroke="#65a17c" stroke-width="1.51"/><path d="M2031,1273L2242,1484L2383,1241Z" fill="#006328" stroke="#006328" stroke-width="1.51"/><path d="M2050,835L2318,857L2370,655Z" fill="#26834d" stroke="#26834d" stroke-width="1.51"/><path d="M1846,581L2050,835L2370,655Z" fill="#308f59" stroke="#308f59" stroke-width="1.51"/><path d="M1946,-22L1849,181L2261,27Z" fill="#70ac85" stroke="#70ac85" stroke-width="1.51"/><path d="M2031,1273L1934,1418L2242,1484Z" fill="#006629" stroke="#006629" stroke-width="1.51"/><path d="M1137,1438L572,1474L1425,1532Z" fill="#33865a" stroke="#33865a" stroke-width="1.51"/><path d="M1795,384L1829,441L1849,181Z" fill="#5aa97d" stroke="#5aa97d" stroke-width="1.51"/><path d="M1257,-447L1803,-364L1958,-458Z" fill="#92c39f" stroke="#92c39f" stroke-width="1.51"/><path d="M1803,-364L1946,-22L1958,-458Z" fill="#86b794" stroke="#86b794" stroke-width="1.51"/><path d="M1846,581L1614,945L2050,835Z" fill="#2f9759" stroke="#2f9759" stroke-width="1.51"/><path d="M1677,1174L2031,1273L2050,835Z" fill="#18803b" stroke="#18803b" stroke-width="1.51"/><path d="M1614,945L1677,1174L2050,835Z" fill="#258c48" stroke="#258c48" stroke-width="1.51"/><path d="M1803,-364L1662,-148L1946,-22Z" fill="#85ba96" stroke="#85ba96" stroke-width="1.51"/><path d="M1677,1174L1934,1418L2031,1273Z" fill="#0d7633" stroke="#0d7633" stroke-width="1.51"/><path d="M1662,-148L1849,181L1946,-22Z" fill="#7bb68f" stroke="#7bb68f" stroke-width="1.51"/><path d="M1677,1174L1560,1452L1934,1418Z" fill="#127836" stroke="#127836" stroke-width="1.51"/><path d="M1425,594L1406,791L1614,945Z" fill="#3da76d" stroke="#3da76d" stroke-width="1.51"/><path d="M1829,441L1425,594L1846,581Z" fill="#48a674" stroke="#48a674" stroke-width="1.51"/><path d="M1425,594L1614,945L1846,581Z" fill="#3da36a" stroke="#3da36a" stroke-width="1.51"/><path d="M1432,121L1795,384L1849,181Z" fill="#6ab489" stroke="#6ab489" stroke-width="1.51"/><path d="M1662,-148L1432,121L1849,181Z" fill="#7dbd95" stroke="#7dbd95" stroke-width="1.51"/><path d="M1795,384L1425,594L1829,441Z" fill="#50aa79" stroke="#50aa79" stroke-width="1.51"/><path d="M1257,-447L1662,-148L1803,-364Z" fill="#93c7a5" stroke="#93c7a5" stroke-width="1.51"/><path d="M1432,121L1425,594L1795,384Z" fill="#60b58a" stroke="#60b58a" stroke-width="1.51"/><path d="M1257,-447L1314,-188L1662,-148Z" fill="#96ceb0" stroke="#96ceb0" stroke-width="1.51"/><path d="M1614,945L1383,1175L1677,1174Z" fill="#278f4c" stroke="#278f4c" stroke-width="1.51"/><path d="M1383,1175L1560,1452L1677,1174Z" fill="#1f8645" stroke="#1f8645" stroke-width="1.51"/><path d="M1314,-188L1432,121L1662,-148Z" fill="#8bc8a6" stroke="#8bc8a6" stroke-width="1.51"/><path d="M1406,791L1383,1175L1614,945Z" fill="#339c5c" stroke="#339c5c" stroke-width="1.51"/><path d="M1112,251L1425,594L1432,121Z" fill="#6cc29c" stroke="#6cc29c" stroke-width="1.51"/><path d="M1383,1175L1425,1532L1560,1452Z" fill="#1f8145" stroke="#1f8145" stroke-width="1.51"/><path d="M1191,1076L1383,1175L1406,791Z" fill="#369f61" stroke="#369f61" stroke-width="1.51"/><path d="M1383,1175L1137,1438L1425,1532Z" fill="#26884e" stroke="#26884e" stroke-width="1.51"/><path d="M1067,565L1406,791L1425,594Z" fill="#4eb585" stroke="#4eb585" stroke-width="1.51"/><path d="M1112,251L1067,565L1425,594Z" fill="#62bf9a" stroke="#62bf9a" stroke-width="1.51"/><path d="M1314,-188L1108,-65L1432,121Z" fill="#91cfb2" stroke="#91cfb2" stroke-width="1.51"/><path d="M1108,-65L1112,251L1432,121Z" fill="#88cdb0" stroke="#88cdb0" stroke-width="1.51"/><path d="M1041,923L1191,1076L1406,791Z" fill="#41a870" stroke="#41a870" stroke-width="1.51"/><path d="M1067,565L1041,923L1406,791Z" fill="#4db483" stroke="#4db483" stroke-width="1.51"/><path d="M1191,1076L1137,1438L1383,1175Z" fill="#31955a" stroke="#31955a" stroke-width="1.51"/><path d="M976,-491L1108,-65L1257,-447Z" fill="#a5d9c5" stroke="#a5d9c5" stroke-width="1.51"/><path d="M1257,-447L1108,-65L1314,-188Z" fill="#9dd5bd" stroke="#9dd5bd" stroke-width="1.51"/><path d="M976,-491L834,-348L1108,-65Z" fill="#aadccd" stroke="#aadccd" stroke-width="1.51"/><path d="M941,1058L1137,1438L1191,1076Z" fill="#3b9a65" stroke="#3b9a65" stroke-width="1.51"/><path d="M1041,923L941,1058L1191,1076Z" fill="#45a672" stroke="#45a672" stroke-width="1.51"/><path d="M703,786L1041,923L1067,565Z" fill="#59ba91" stroke="#59ba91" stroke-width="1.51"/><path d="M717,637L703,786L1067,565Z" fill="#68c29f" stroke="#68c29f" stroke-width="1.51"/><path d="M834,-348L805,-134L1108,-65Z" fill="#a8dcce" stroke="#a8dcce" stroke-width="1.51"/><path d="M805,-134L713,198L1108,-65Z" fill="#a1daca" stroke="#a1daca" stroke-width="1.51"/><path d="M1108,-65L713,198L1112,251Z" fill="#90d3be" stroke="#90d3be" stroke-width="1.51"/><path d="M713,198L1067,565L1112,251Z" fill="#7bcbb2" stroke="#7bcbb2" stroke-width="1.51"/><path d="M941,1058L709,1295L1137,1438Z" fill="#419b6b" stroke="#419b6b" stroke-width="1.51"/><path d="M709,1295L572,1474L1137,1438Z" fill="#46936a" stroke="#46936a" stroke-width="1.51"/><path d="M39,-462L231,-321L976,-491Z" fill="#d2eee9" stroke="#d2eee9" stroke-width="1.51"/><path d="M713,198L717,637L1067,565Z" fill="#77c9af" stroke="#77c9af" stroke-width="1.51"/><path d="M231,-321L834,-348L976,-491Z" fill="#bfe6dd" stroke="#bfe6dd" stroke-width="1.51"/><path d="M703,786L941,1058L1041,923Z" fill="#53b184" stroke="#53b184" stroke-width="1.51"/><path d="M713,198L541,519L717,637Z" fill="#84cfb9" stroke="#84cfb9" stroke-width="1.51"/><path d="M231,-321L612,-218L834,-348Z" fill="#c4e9e3" stroke="#c4e9e3" stroke-width="1.51"/><path d="M574,1005L709,1295L941,1058Z" fill="#56a97b" stroke="#56a97b" stroke-width="1.51"/><path d="M703,786L574,1005L941,1058Z" fill="#5eb489" stroke="#5eb489" stroke-width="1.51"/><path d="M612,-218L713,198L805,-134Z" fill="#afe0d4" stroke="#afe0d4" stroke-width="1.51"/><path d="M612,-218L805,-134L834,-348Z" fill="#b6e2d9" stroke="#b6e2d9" stroke-width="1.51"/><path d="M463,351L541,519L713,198Z" fill="#94d6c4" stroke="#94d6c4" stroke-width="1.51"/><path d="M231,-321L398,-186L612,-218Z" fill="#ccece8" stroke="#ccece8" stroke-width="1.51"/><path d="M398,-186L361,165L612,-218Z" fill="#c1e8e0" stroke="#c1e8e0" stroke-width="1.51"/><path d="M612,-218L361,165L713,198Z" fill="#b2e2d7" stroke="#b2e2d7" stroke-width="1.51"/><path d="M541,519L703,786L717,637Z" fill="#76c7aa" stroke="#76c7aa" stroke-width="1.51"/><path d="M574,1005L572,1474L709,1295Z" fill="#58a479" stroke="#58a479" stroke-width="1.51"/><path d="M361,165L463,351L713,198Z" fill="#a3dbce" stroke="#a3dbce" stroke-width="1.51"/><path d="M228,1394L572,1474L574,1005Z" fill="#63a67d" stroke="#63a67d" stroke-width="1.51"/><path d="M541,519L263,729L703,786Z" fill="#7ecaad" stroke="#7ecaad" stroke-width="1.51"/><path d="M263,729L413,968L703,786Z" fill="#79c5a1" stroke="#79c5a1" stroke-width="1.51"/><path d="M413,968L574,1005L703,786Z" fill="#6cbb94" stroke="#6cbb94" stroke-width="1.51"/><path d="M413,968L228,1394L574,1005Z" fill="#6eb289" stroke="#6eb289" stroke-width="1.51"/><path d="M165,1019L228,1394L413,968Z" fill="#78b68d" stroke="#78b68d" stroke-width="1.51"/><path d="M463,351L191,509L541,519Z" fill="#96d6c3" stroke="#96d6c3" stroke-width="1.51"/><path d="M191,509L263,729L541,519Z" fill="#90d2bc" stroke="#90d2bc" stroke-width="1.51"/><path d="M82,-123L361,165L398,-186Z" fill="#ccece6" stroke="#ccece6" stroke-width="1.51"/><path d="M361,165L191,509L463,351Z" fill="#a5ddce" stroke="#a5ddce" stroke-width="1.51"/><path d="M263,729L165,1019L413,968Z" fill="#81c49f" stroke="#81c49f" stroke-width="1.51"/><path d="M231,-321L82,-123L398,-186Z" fill="#d7f0ee" stroke="#d7f0ee" stroke-width="1.51"/><path d="M-163,206L191,509L361,165Z" fill="#b5e3d9" stroke="#b5e3d9" stroke-width="1.51"/><path d="M82,-123L-163,206L361,165Z" fill="#cbebe6" stroke="#cbebe6" stroke-width="1.51"/><path d="M-466,-152L-283,-224L39,-462Z" fill="#e9f6fa" stroke="#e9f6fa" stroke-width="1.51"/><path d="M165,1019L-88,1341L228,1394Z" fill="#79b18b" stroke="#79b18b" stroke-width="1.51"/><path d="M191,509L-111,715L263,729Z" fill="#98d4bd" stroke="#98d4bd" stroke-width="1.51"/><path d="M-111,715L165,1019L263,729Z" fill="#8ecdae" stroke="#8ecdae" stroke-width="1.51"/><path d="M-163,206L-97,568L191,509Z" fill="#aedfd3" stroke="#aedfd3" stroke-width="1.51"/><path d="M-97,568L-111,715L191,509Z" fill="#9fd8c5" stroke="#9fd8c5" stroke-width="1.51"/><path d="M39,-462L82,-123L231,-321Z" fill="#dff3f2" stroke="#dff3f2" stroke-width="1.51"/><path d="M-174,1228L-88,1341L165,1019Z" fill="#81b691" stroke="#81b691" stroke-width="1.51"/><path d="M-186,-67L-163,206L82,-123Z" fill="#d8f1ee" stroke="#d8f1ee" stroke-width="1.51"/><path d="M-111,715L-174,1228L165,1019Z" fill="#8bc3a0" stroke="#8bc3a0" stroke-width="1.51"/><path d="M39,-462L-283,-224L82,-123Z" fill="#e3f5f7" stroke="#e3f5f7" stroke-width="1.51"/><path d="M-283,-224L-186,-67L82,-123Z" fill="#e0f4f5" stroke="#e0f4f5" stroke-width="1.51"/><path d="M-438,1050L-174,1228L-111,715Z" fill="#91c5a2" stroke="#91c5a2" stroke-width="1.51"/><path d="M-396,668L-475,912L-111,715Z" fill="#9fd5ba" stroke="#9fd5ba" stroke-width="1.51"/><path d="M-475,912L-438,1050L-111,715Z" fill="#99cdad" stroke="#99cdad" stroke-width="1.51"/><path d="M-163,206L-371,240L-97,568Z" fill="#bce5dd" stroke="#bce5dd" stroke-width="1.51"/><path d="M-371,240L-396,668L-97,568Z" fill="#b0dfd2" stroke="#b0dfd2" stroke-width="1.51"/><path d="M-396,668L-111,715L-97,568Z" fill="#a3d8c4" stroke="#a3d8c4" stroke-width="1.51"/><path d="M-174,1228L-351,1304L-88,1341Z" fill="#82b28f" stroke="#82b28f" stroke-width="1.51"/><path d="M-186,-67L-371,240L-163,206Z" fill="#d1eeea" stroke="#d1eeea" stroke-width="1.51"/><path d="M-466,-152L-371,240L-186,-67Z" fill="#dff3f1" stroke="#dff3f1" stroke-width="1.51"/><path d="M-438,1050L-351,1304L-174,1228Z" fill="#89b995" stroke="#89b995" stroke-width="1.51"/><path d="M-283,-224L-466,-152L-186,-67Z" fill="#e5f5f7" stroke="#e5f5f7" stroke-width="1.51"/><path d="M-475,912L-396,668L-371,240Z" fill="#abdcc9" stroke="#abdcc9" stroke-width="1.51"/><path d="M-466,-152L-475,912L-371,240Z" fill="#c2e8df" stroke="#c2e8df" stroke-width="1.51"/></svg>