<svg xmlns="http://www.w3.org/2000/svg" width="1920" height="1080"><path d="M-78,1399L-363,1387L534,1440Z" fill="#7e91b1" stroke="#7e91b1" stroke-width="1.51"/><path d="M224,1415L-78,1399L534,1440Z" fill="#768bad" stroke="#768bad" stroke-width="1.51"/><path d="M-38,-382L225,-338L819,-346Z" fill="#dcdced" stroke="#dcdced" stroke-width="1.51"/><path d="M-38,-382L819,-346L1066,-391Z" fill="#cdd6e8" stroke="#cdd6e8" stroke-width="1.51"/><path d="M1116,1429L534,1440L1409,1458Z" fill="#3f759e" stroke="#3f759e" stroke-width="1.51"/><path d="M1066,-391L1357,-377L1981,-380Z" fill="#9db8d9" stroke="#9db8d9" stroke-width="1.51"/><path d="M1357,-377L1730,-351L1981,-380Z" fill="#96aed4" stroke="#96aed4" stroke-width="1.51"/><path d="M1974,1423L1654,1433L2273,1443Z" fill="#045585" stroke="#045585" stroke-width="1.51"/><path d="M1654,1433L1409,1458L2273,1443Z" fill="#045a8d" stroke="#045a8d" stroke-width="1.51"/><path d="M2004,1174L1974,1423L2273,1443Z" fill="#045788" stroke="#045788" stroke-width="1.51"/><path d="M1978,-42L1948,225L2279,-27Z" fill="#7892b8" stroke="#7892b8" stroke-width="1.51"/><path d="M2010,835L2004,1174L2297,841Z" fill="#14699f" stroke="#14699f" stroke-width="1.51"/><path d="M2010,835L2297,841L2313,575Z" fill="#28709d" stroke="#28709d" stroke-width="1.51"/><path d="M1947,552L2010,835L2313,575Z" fill="#387aa8" stroke="#387aa8" stroke-width="1.51"/><path d="M2279,-27L1948,225L2316,227Z" fill="#6d89ad" stroke="#6d89ad" stroke-width="1.51"/><path d="M1947,552L2313,575L2316,227Z" fill="#4e7da6" stroke="#4e7da6" stroke-width="1.51"/><path d="M1948,225L1947,552L2316,227Z" fill="#5e88b2" stroke="#5e88b2" stroke-width="1.51"/><path d="M2297,841L2004,1174L2317,1164Z" fill="#045e94" stroke="#045e94" stroke-width="1.51"/><path d="M2004,1174L2273,1443L2317,1164Z" fill="#035687" stroke="#035687" stroke-width="1.51"/><path d="M2313,575L2297,841L2317,1164Z" fill="#1a6492" stroke="#1a6492" stroke-width="1.51"/><path d="M1978,-42L2279,-27L2321,-310Z" fill="#7f93b2" stroke="#7f93b2" stroke-width="1.51"/><path d="M1981,-380L1978,-42L2321,-310Z" fill="#899cbd" stroke="#899cbd" stroke-width="1.51"/><path d="M2279,-27L2316,227L2321,-310Z" fill="#7789a8" stroke="#7789a8" stroke-width="1.51"/><path d="M1738,509L1671,869L1947,552Z" fill="#3e84b8" stroke="#3e84b8" stroke-width="1.51"/><path d="M1727,288L1738,509L1947,552Z" fill="#568cbc" stroke="#568cbc" stroke-width="1.51"/><path d="M1727,288L1947,552L1948,225Z" fill="#608dbb" stroke="#608dbb" stroke-width="1.51"/><path d="M1691,1143L1654,1433L1974,1423Z" fill="#056199" stroke="#056199" stroke-width="1.51"/><path d="M1686,-81L1948,225L1978,-42Z" fill="#7d99c2" stroke="#7d99c2" stroke-width="1.51"/><path d="M1730,-351L1686,-81L1978,-42Z" fill="#8aa3ca" stroke="#8aa3ca" stroke-width="1.51"/><path d="M1730,-351L1978,-42L1981,-380Z" fill="#8ea3c8" stroke="#8ea3c8" stroke-width="1.51"/><path d="M1691,1143L1974,1423L2004,1174Z" fill="#04629a" stroke="#04629a" stroke-width="1.51"/><path d="M1947,552L1671,869L2010,835Z" fill="#2c7cb1" stroke="#2c7cb1" stroke-width="1.51"/><path d="M1691,1143L2004,1174L2010,835Z" fill="#056aa6" stroke="#056aa6" stroke-width="1.51"/><path d="M1671,869L1691,1143L2010,835Z" fill="#1673af" stroke="#1673af" stroke-width="1.51"/><path d="M1686,-81L1727,288L1948,225Z" fill="#7698c4" stroke="#7698c4" stroke-width="1.51"/><path d="M1409,557L1403,821L1671,869Z" fill="#378bbe" stroke="#378bbe" stroke-width="1.51"/><path d="M1671,869L1396,1143L1691,1143Z" fill="#1375b3" stroke="#1375b3" stroke-width="1.51"/><path d="M1396,1143L1654,1433L1691,1143Z" fill="#116da6" stroke="#116da6" stroke-width="1.51"/><path d="M1686,-81L1411,206L1727,288Z" fill="#7b9fcb" stroke="#7b9fcb" stroke-width="1.51"/><path d="M1411,206L1409,557L1727,288Z" fill="#689bc8" stroke="#689bc8" stroke-width="1.51"/><path d="M1375,-93L1686,-81L1730,-351Z" fill="#91acd2" stroke="#91acd2" stroke-width="1.51"/><path d="M1357,-377L1375,-93L1730,-351Z" fill="#98b4d6" stroke="#98b4d6" stroke-width="1.51"/><path d="M1727,288L1409,557L1738,509Z" fill="#5a92c3" stroke="#5a92c3" stroke-width="1.51"/><path d="M1409,557L1671,869L1738,509Z" fill="#428bbf" stroke="#428bbf" stroke-width="1.51"/><path d="M225,-338L547,-306L819,-346Z" fill="#d0d6e9" stroke="#d0d6e9" stroke-width="1.51"/><path d="M1396,1143L1409,1458L1654,1433Z" fill="#186ca0" stroke="#186ca0" stroke-width="1.51"/><path d="M1403,821L1396,1143L1671,869Z" fill="#2580b8" stroke="#2580b8" stroke-width="1.51"/><path d="M1375,-93L1411,206L1686,-81Z" fill="#89a9d0" stroke="#89a9d0" stroke-width="1.51"/><path d="M780,1384L534,1440L1116,1429Z" fill="#507da4" stroke="#507da4" stroke-width="1.51"/><path d="M1066,-391L1107,-55L1357,-377Z" fill="#a7c1dd" stroke="#a7c1dd" stroke-width="1.51"/><path d="M1357,-377L1107,-55L1375,-93Z" fill="#9cbad9" stroke="#9cbad9" stroke-width="1.51"/><path d="M1133,1113L1116,1429L1396,1143Z" fill="#317caf" stroke="#317caf" stroke-width="1.51"/><path d="M1133,1113L1396,1143L1403,821Z" fill="#2982ba" stroke="#2982ba" stroke-width="1.51"/><path d="M1087,862L1133,1113L1403,821Z" fill="#3c8bbf" stroke="#3c8bbf" stroke-width="1.51"/><path d="M1094,547L1087,862L1403,821Z" fill="#4b97c4" stroke="#4b97c4" stroke-width="1.51"/><path d="M1396,1143L1116,1429L1409,1458Z" fill="#2473a4" stroke="#2473a4" stroke-width="1.51"/><path d="M1094,547L1403,821L1409,557Z" fill="#4f98c5" stroke="#4f98c5" stroke-width="1.51"/><path d="M1109,247L1094,547L1409,557Z" fill="#6ca4cc" stroke="#6ca4cc" stroke-width="1.51"/><path d="M1375,-93L1107,-55L1411,206Z" fill="#8fb1d4" stroke="#8fb1d4" stroke-width="1.51"/><path d="M1107,-55L1109,247L1411,206Z" fill="#8bb0d3" stroke="#8bb0d3" stroke-width="1.51"/><path d="M1109,247L1409,557L1411,206Z" fill="#71a5cd" stroke="#71a5cd" stroke-width="1.51"/><path d="M778,820L1087,862L1094,547Z" fill="#5c9ec8" stroke="#5c9ec8" stroke-width="1.51"/><path d="M783,570L778,820L1094,547Z" fill="#6fa6cd" stroke="#6fa6cd" stroke-width="1.51"/><path d="M781,230L783,570L1094,547Z" fill="#83aed2" stroke="#83aed2" stroke-width="1.51"/><path d="M1066,-391L819,-346L1107,-55Z" fill="#b1c7e0" stroke="#b1c7e0" stroke-width="1.51"/><path d="M819,-346L810,-76L1107,-55Z" fill="#b1c6e0" stroke="#b1c6e0" stroke-width="1.51"/><path d="M810,-76L781,230L1107,-55Z" fill="#a7bedc" stroke="#a7bedc" stroke-width="1.51"/><path d="M1107,-55L781,230L1109,247Z" fill="#97b7d7" stroke="#97b7d7" stroke-width="1.51"/><path d="M781,230L1094,547L1109,247Z" fill="#86afd3" stroke="#86afd3" stroke-width="1.51"/><path d="M852,1107L780,1384L1116,1429Z" fill="#4b82af" stroke="#4b82af" stroke-width="1.51"/><path d="M852,1107L1116,1429L1133,1113Z" fill="#4282b3" stroke="#4282b3" stroke-width="1.51"/><path d="M1087,862L852,1107L1133,1113Z" fill="#488cbf" stroke="#488cbf" stroke-width="1.51"/><path d="M778,820L852,1107L1087,862Z" fill="#5796c5" stroke="#5796c5" stroke-width="1.51"/><path d="M500,278L524,533L781,230Z" fill="#a0bad9" stroke="#a0bad9" stroke-width="1.51"/><path d="M781,230L524,533L783,570Z" fill="#90b3d5" stroke="#90b3d5" stroke-width="1.51"/><path d="M480,-92L781,230L810,-76Z" fill="#b5c4df" stroke="#b5c4df" stroke-width="1.51"/><path d="M547,-306L810,-76L819,-346Z" fill="#c2cfe5" stroke="#c2cfe5" stroke-width="1.51"/><path d="M535,1091L780,1384L852,1107Z" fill="#5d8cba" stroke="#5d8cba" stroke-width="1.51"/><path d="M778,820L535,1091L852,1107Z" fill="#6295c5" stroke="#6295c5" stroke-width="1.51"/><path d="M485,876L535,1091L778,820Z" fill="#6f9eca" stroke="#6f9eca" stroke-width="1.51"/><path d="M535,1091L534,1440L780,1384Z" fill="#628ab3" stroke="#628ab3" stroke-width="1.51"/><path d="M480,-92L500,278L781,230Z" fill="#b2c2de" stroke="#b2c2de" stroke-width="1.51"/><path d="M524,533L778,820L783,570Z" fill="#7eabd0" stroke="#7eabd0" stroke-width="1.51"/><path d="M547,-306L480,-92L810,-76Z" fill="#c4cee4" stroke="#c4cee4" stroke-width="1.51"/><path d="M524,533L485,876L778,820Z" fill="#7aa9cf" stroke="#7aa9cf" stroke-width="1.51"/><path d="M480,-92L265,220L500,278Z" fill="#bcc8e0" stroke="#bcc8e0" stroke-width="1.51"/><path d="M235,802L485,876L524,533Z" fill="#87aed2" stroke="#87aed2" stroke-width="1.51"/><path d="M213,530L235,802L524,533Z" fill="#97b6d7" stroke="#97b6d7" stroke-width="1.51"/><path d="M500,278L213,530L524,533Z" fill="#a2bbda" stroke="#a2bbda" stroke-width="1.51"/><path d="M485,876L204,1095L535,1091Z" fill="#789cc9" stroke="#789cc9" stroke-width="1.51"/><path d="M224,1415L534,1440L535,1091Z" fill="#6e8eb6" stroke="#6e8eb6" stroke-width="1.51"/><path d="M204,1095L224,1415L535,1091Z" fill="#7896bf" stroke="#7896bf" stroke-width="1.51"/><path d="M225,-338L480,-92L547,-306Z" fill="#d4d7e9" stroke="#d4d7e9" stroke-width="1.51"/><path d="M265,220L213,530L500,278Z" fill="#b0c1de" stroke="#b0c1de" stroke-width="1.51"/><path d="M179,-73L265,220L480,-92Z" fill="#cccee4" stroke="#cccee4" stroke-width="1.51"/><path d="M225,-338L179,-73L480,-92Z" fill="#d7d7e9" stroke="#d7d7e9" stroke-width="1.51"/><path d="M235,802L204,1095L485,876Z" fill="#82a5ce" stroke="#82a5ce" stroke-width="1.51"/><path d="M-104,1160L-78,1399L204,1095Z" fill="#869ec3" stroke="#869ec3" stroke-width="1.51"/><path d="M-101,233L-80,548L213,530Z" fill="#b6c7e1" stroke="#b6c7e1" stroke-width="1.51"/><path d="M-80,548L-85,797L213,530Z" fill="#a5bfdc" stroke="#a5bfdc" stroke-width="1.51"/><path d="M204,1095L-78,1399L224,1415Z" fill="#7f96bb" stroke="#7f96bb" stroke-width="1.51"/><path d="M213,530L-85,797L235,802Z" fill="#99b7d7" stroke="#99b7d7" stroke-width="1.51"/><path d="M-85,797L204,1095L235,802Z" fill="#8dacd2" stroke="#8dacd2" stroke-width="1.51"/><path d="M-101,233L213,530L265,220Z" fill="#bbc8e1" stroke="#bbc8e1" stroke-width="1.51"/><path d="M179,-73L-101,233L265,220Z" fill="#ccd0e6" stroke="#ccd0e6" stroke-width="1.51"/><path d="M-108,-56L-101,233L179,-73Z" fill="#d8d7ea" stroke="#d8d7ea" stroke-width="1.51"/><path d="M-38,-382L179,-73L225,-338Z" fill="#e3e0ee" stroke="#e3e0ee" stroke-width="1.51"/><path d="M-85,797L-104,1160L204,1095Z" fill="#8ca8d0" stroke="#8ca8d0" stroke-width="1.51"/><path d="M-38,-382L-108,-56L179,-73Z" fill="#e2e0ee" stroke="#e2e0ee" stroke-width="1.51"/><path d="M-401,858L-390,1105L-104,1160Z" fill="#95aed4" stroke="#95aed4" stroke-width="1.51"/><path d="M-401,858L-104,1160L-85,797Z" fill="#97b2d5" stroke="#97b2d5" stroke-width="1.51"/><path d="M-101,233L-369,243L-80,548Z" fill="#c5d0e6" stroke="#c5d0e6" stroke-width="1.51"/><path d="M-369,243L-377,579L-80,548Z" fill="#bdcee4" stroke="#bdcee4" stroke-width="1.51"/><path d="M-377,579L-85,797L-80,548Z" fill="#abc3de" stroke="#abc3de" stroke-width="1.51"/><path d="M-342,-308L-108,-56L-38,-382Z" fill="#ede8f2" stroke="#ede8f2" stroke-width="1.51"/><path d="M-342,-308L-398,-82L-108,-56Z" fill="#ebe6f1" stroke="#ebe6f1" stroke-width="1.51"/><path d="M-398,-82L-369,243L-108,-56Z" fill="#e0deee" stroke="#e0deee" stroke-width="1.51"/><path d="M-108,-56L-369,243L-101,233Z" fill="#d6d8ea" stroke="#d6d8ea" stroke-width="1.51"/><path d="M-377,579L-401,858L-85,797Z" fill="#a4c0dc" stroke="#a4c0dc" stroke-width="1.51"/><path d="M-104,1160L-363,1387L-78,1399Z" fill="#8a9ebf" stroke="#8a9ebf" stroke-width="1.51"/><path d="M-390,1105L-363,1387L-104,1160Z" fill="#8fa4c7" stroke="#8fa4c7" stroke-width="1.51"/><path d="M-398,-82L-377,579L-369,243Z" fill="#d2d8eb" stroke="#d2d8eb" stroke-width="1.51"/><path d="M-398,-82L-401,858L-377,579Z" fill="#c1d1e6" stroke="#c1d1e6" stroke-width="1.51"/></svg>