<?xml version="1.0" encoding="UTF-8" standalone="no"?>
<svg
   xmlns:dc="http://purl.org/dc/elements/1.1/"
   xmlns:cc="http://creativecommons.org/ns#"
   xmlns:rdf="http://www.w3.org/1999/02/22-rdf-syntax-ns#"
   xmlns:svg="http://www.w3.org/2000/svg"
   xmlns="http://www.w3.org/2000/svg"
   xmlns:xlink="http://www.w3.org/1999/xlink"
   id="svg5546"
   style="pointer-events: none; display: block;"
   preserveAspectRatio="xMidYMid meet"
   fit=""
   xml:space="preserve"
   viewBox="0 0 350 350"
   height="100%"
   width="100%"
   y="0px"
   x="0px"
   version="1.1"><metadata
     id="metadata5626"><rdf:RDF><cc:Work
         rdf:about=""><dc:format>image/svg+xml</dc:format><dc:type
           rdf:resource="http://purl.org/dc/dcmitype/StillImage" /><dc:title></dc:title></cc:Work></rdf:RDF></metadata><defs
     id="defs5548"><linearGradient
       id="d"><stop
         id="stop5551"
         offset="0" /><stop
         id="stop5553"
         stop-opacity="0"
         offset="1" /></linearGradient><linearGradient
       id="a"><stop
         id="stop5556"
         offset="0" /><stop
         id="stop5558"
         stop-opacity="0"
         offset="1" /></linearGradient><linearGradient
       id="c"><stop
         id="stop5561"
         stop-color="#6687e7"
         offset="0" /><stop
         id="stop5563"
         stop-color="#4169e1"
         offset="1" /></linearGradient><linearGradient
       id="linearGradient5565"
       gradientUnits="userSpaceOnUse"
       xlink:href="#a"
       y2="79.838"
       x2="81.171"
       y1="63.205"
       x1="64.667" /><clipPath
       id="clipPath5567"><rect
         id="rect5569"
         fill="url(#b)"
         y="31.071"
         x="27.857"
         ry="30"
         rx="30"
         height="60"
         width="60" /></clipPath><radialGradient
       gradientTransform="translate(2.857 1.071)"
       gradientUnits="userSpaceOnUse"
       xlink:href="#c"
       id="b"
       fy="60"
       fx="55"
       r="30.5"
       cy="60"
       cx="55" /><linearGradient
       id="linearGradient5572"
       gradientUnits="userSpaceOnUse"
       xlink:href="#a"
       y2="79.266"
       x2="80.269"
       y1="51.119"
       x1="64.018" /><linearGradient
       id="linearGradient5574"
       gradientTransform="matrix(2.49 0 0 2.49 -42.782 -1335.017)"
       gradientUnits="userSpaceOnUse"
       xlink:href="#d"
       y2="938.157"
       x2="83.75"
       y1="887.493"
       x1="35.915" /><radialGradient
       id="radialGradient5576"
       gradientTransform="translate(-.177 852.362)"
       gradientUnits="userSpaceOnUse"
       xlink:href="#e"
       fy="60"
       fx="55"
       r="30.5"
       cy="60"
       cx="55" /><linearGradient
       id="e"><stop
         id="stop5579"
         stop-color="#6687e7"
         offset="0" /><stop
         id="stop5581"
         stop-color="#4169e1"
         offset="1" /></linearGradient><clipPath
       id="clipPath5583"><path
         id="path5585"
         stroke="#000"
         fill="url(#f)"
         d="M55.154 29.993c16.62 0 30 13.38 30 30 0 16.62-13.38 30-30 30-16.62 0-30-13.38-30-30 0-16.62 13.38-30 30-30z" /></clipPath><radialGradient
       gradientTransform="translate(.154 -.007)"
       gradientUnits="userSpaceOnUse"
       xlink:href="#e"
       id="f"
       fy="60"
       fx="55"
       r="30.5"
       cy="60"
       cx="55" /><clipPath
       id="clipPath5588"><path
         id="path5590"
         stroke="#000"
         fill="url(#g)"
         d="M58.01 31.064c16.62 0 30 13.38 30 30 0 16.62-13.38 30-30 30-16.62 0-30-13.38-30-30 0-16.62 13.38-30 30-30z" /></clipPath><radialGradient
       gradientTransform="translate(3.011 1.064)"
       gradientUnits="userSpaceOnUse"
       xlink:href="#e"
       id="g"
       fy="60"
       fx="55"
       r="30.5"
       cy="60"
       cx="55" /><linearGradient
       id="linearGradient5593"
       gradientTransform="matrix(2.49 0 0 2.49 17.951 -1260.201)"
       gradientUnits="userSpaceOnUse"
       xlink:href="#c"
       y2="824.674"
       x2="-114.905"
       y1="823.26"
       x1="-115.966" /><linearGradient
       id="linearGradient5595"
       gradientTransform="matrix(2.49 0 0 2.49 -42.782 -1335.017)"
       gradientUnits="userSpaceOnUse"
       xlink:href="#d"
       y2="938.157"
       x2="83.75"
       y1="887.493"
       x1="35.915" /><linearGradient
       id="linearGradient5597"
       gradientUnits="userSpaceOnUse"
       xlink:href="#a"
       y2="79.266"
       x2="80.269"
       y1="51.119"
       x1="64.018" /><linearGradient
       id="linearGradient5599"
       gradientTransform="matrix(2.49 0 0 2.49 -42.782 -1335.017)"
       gradientUnits="userSpaceOnUse"
       xlink:href="#d"
       y2="938.157"
       x2="83.75"
       y1="887.493"
       x1="35.915" /><linearGradient
       id="linearGradient5601"
       gradientUnits="userSpaceOnUse"
       xlink:href="#a"
       y2="79.266"
       x2="80.269"
       y1="51.119"
       x1="64.018" /><linearGradient
       id="linearGradient5603"
       gradientTransform="matrix(2.422 0 0 2.422 -56.389 -65.568)"
       gradientUnits="userSpaceOnUse"
       xlink:href="#a"
       y2="76.466"
       x2="59.644"
       y1="55.319"
       x1="24.297" /></defs><g
     transform="matrix(0,1,-1,0,265.02742,213.76503)"
     id="g6346"><g
       style="fill-rule:evenodd"
       id="mouth"
       transform="matrix(0,-1,1,0,-221.24221,262.57958)"><path
         style="fill:#f48fb1"
         class="mouth1"
         d="m 251.697,127.356 c 22.63,-25.96 50.746,-41.516 63.334,-35.486 -4.995,5.784 -20.682,4.878 -38.78,39.15 -4.41,4.72 -13.96,-1.502 -24.552,-3.664 z"
         id="path5606" /><path
         style="fill:#80cbc4"
         class="mouth1"
         d="m 243.96,134.553 c 27.668,11.743 69.196,13.632 73.608,-2.334 l -5.324,-33.167 c 0,0 -6.716,-4.126 -12.86,1.907 -12.316,12.096 -38.918,18.554 -55.423,33.593 z"
         id="path5608" /></g><g
       style="fill:#00796b;stroke-width:0.242;stroke-linejoin:round"
       id="g5610"
       transform="matrix(0,-1,1,0,-221.24221,262.57958)"><path
         d="m 112.768,214.136 c 9.453,-1.417 38.937,35.19 27.03,42.597 -11.355,7.065 -41.624,8.98 -40.322,-3.383 0.833,-7.92 -9.007,-23.954 -9.007,-23.954 z m 112.068,5.961 c -0.847,12.194 -3.986,34.38 1.51,35.972 4.24,1.226 31.676,-3.79 31.676,-3.79 15.196,-4.8 -12.478,-43.2 -12.578,-43.328 z"
         id="path5612" /></g><path
       d="m -165.98973,-40.44042 c 0.07,9.278 4.06,20.688 12.847,33.815 4.55,44.52 87.44,29.92 97.91,44.676 -2.156,3.93 -22.468,23.68 -28.912,57.847 -2.12,13.903 2.01,30.77 9.176,46.393 -0.05,0.05 -0.08,0.12 -0.07,0.222 6.72,73.822 -16.803,104.99 -17.16,113.888 -2.27,15.314 73.386,-55.744 80.69,-58.465 -0.35,-0.27 -0.865,-0.814 -1.482,-1.525 44.292,10.924 11.566,-31.765 28.116,-40.935 11.524,-17.524 12.426,-46.01 10.478,-58.5 -2.92,-18.72 -11.182,-28.108 -11.182,-28.108 40.407,-47.557 -22.993,-45.187 -37.405,-57.29 1.92,1.172 -49.274,-27.873 -79.87,-27.56 0,0 10.015,-45.288 6.886,-51.17 0,0 -35.627,-34.09 -52.71,2.385 -11.01,3.997 -17.4,12.4 -17.31,24.328 z m 154.48,238.375 c 0.35,0.27 0.554,0.306 0.562,0.024 -0.05,-0.146 -0.25,-0.14 -0.562,-0.026 z"
       id="path5614"
       style="fill:#009688;fill-rule:evenodd" /><path
       style="fill:#333333"
       d="m -146.43621,-52.62242 c 5.517,0 9.99,4.782 9.99,10.68 0,5.9 -4.473,10.683 -9.99,10.683 -5.517,0 -9.99,-4.78 -9.99,-10.68 0,-5.9 4.473,-10.68 9.99,-10.68 z"
       id="path5616" /><path
       style="fill:#ffffff"
       d="m -150.40021,-38.85642 c 0,1.25 0.934,2.26 2.086,2.26 1.152,0 2.086,-1.01 2.086,-2.26 0,-1.248 -0.934,-2.26 -2.086,-2.26 -1.152,0 -2.086,1.012 -2.086,2.26 z m 7.648,-5.04 c 0,1.92 0.934,3.476 2.086,3.476 1.152,0 2.086,-1.556 2.086,-3.477 0,-1.92 -0.934,-3.478 -2.086,-3.478 -1.152,0 -2.086,1.558 -2.086,3.478 z"
       id="path5618" /><g
       style="fill:#00897b;stroke-width:0.242;stroke-linejoin:round"
       id="g5620"
       transform="matrix(0,-1,1,0,-221.24221,262.57958)"><path
         d="m 107.845,222.38 c 0,0 4.71,36.347 -3.59,41.055 -11.734,6.655 -48.315,-7.65 -43.706,-19.427 2.95,-7.545 4.42,-35.446 4.42,-35.446 15.772,-31.548 30.626,-17.306 42.874,13.817 z M 198.5,205.567 c -9.876,20.95 -9.16,58.57 6.03,60.287 16.28,1.84 35.13,3.155 32.677,-12.764 -1.28,-8.308 -1.152,-31.445 0.57,-30.03 -6.07,-27.04 -31.268,-31.357 -39.278,-17.493 z"
         id="path5622" /></g></g></svg>