<?xml version="1.0" encoding="UTF-8" standalone="no"?>
<svg xmlns:rdf="http://www.w3.org/1999/02/22-rdf-syntax-ns#" xmlns="http://www.w3.org/2000/svg" version="1.1" pointer-events="none" height="100%" width="100%" display="block" xmlns:cc="http://creativecommons.org/ns#" xmlns:dc="http://purl.org/dc/elements/1.1/" viewBox="0 0 128 128">
 <path fill="#4db6ac" d="m-1.1784-1.1784h129.47v129.47h-129.47z"/>
 <path fill="#3e2723" d="m100.78 87.643c-33.104-20.099 28.08-27.625 17.26-35.743-29.093 0.972 2.62-28.184-12.8-25.8 3-31.887-99.578-25.705-97.262 25.516 23.605 0.49584 20.19 4.4168 20.19 4.4168l2.4611 7.5729c23.954 10.112-15.168 18.455-13.655 19.177 9.341 5.133 14.876 8.082 65.532 9.185-9.479-4.247 29.564-3.713 18.274-4.325z"/>
 <path d="m90.535 93.327c-6.4 7.3-16.2 12.1-27.3 12.4-10.7-0.3-20.3-4.7-26.7-11.6l-0.2 0.1c17-13.3 12.9-23.4 8.5-28.6-1.3-1.2-2.8-2.5-4.4-3.9l-13.1-11c-1.5-1.2-2.6-3-2.9-5.1-0.6-4.4 2.5-8.4 6.9-9.1 1.5-0.2 3 0 4.3 0.6 0.3-1.3 0.4-2.7 1.6-3.5 1.4-0.9 2.8-1.7 4.2-2.5 7.1-3.9 14.9-6.6 23-7.9 5.4-0.9 11-1.2 16.1 0.7 3.3 1.2 6.1 3.2 8.7 5.6 1.3 1.2 2.5 2.4 3.7 3.7l1.8 1.9c0.3 0.3 0.5 0.6 0.8 0.8 0.1 0.1 0.2 0 0.4 0.2-0.1 0.2-0.1 0.5-0.1 0.6 1-0.3 2.1-0.4 3.2-0.2 4.4 0.6 7.5 4.7 6.9 9.1-0.3 2.1-1.3 3.8-2.8 5.1l-11 9.3c-1.8 1.5-3.3 3.8-4.6 5.7-1.5 2.3-2.8 4.9-3.5 7.6-1.7 6.8 0.8 13.4 5.4 18.4 0.5 0.6 1.1 1 1.4 1.7 0.2 0.6 0.4 1.3 0.6 2 0.4 1.5 0.5 3.1 0.3 4.6-0.4 3.1-1.8 6.1-4.1 8.2-3.3 3-8 4-12.4 4.5-5.2 0.6-10.5 0.7-15.7 0.2-4.5-0.4-9.1-1.2-13-3.4-5.6-3.1-9.6-8.9-10.5-15.2m14.4-49.8c-0.9 0-1.6 0.7-1.6 1.6s0.7 1.6 1.6 1.6 1.6-0.7 1.6-1.6c0.1-0.9-0.7-1.6-1.6-1.6zm25.7 0c-0.9 0-1.6 0.7-1.6 1.6s0.7 1.6 1.6 1.6 1.6-0.7 1.6-1.6c0.1-0.9-0.7-1.6-1.6-1.6z" stroke-width=".9" fill="#ffe0b2"/>
 <path fill="#424242" d="m105.3 106.1c-0.9-1.3-1.3-1.9-1.3-1.9l-0.2-0.3c-0.6-0.9-1.2-1.7-1.9-2.4-3.2-3.5-7.3-5.4-11.4-5.7 0 0 0.1 0 0.1 0.1l-0.2-0.1c-6.4 6.9-16 11.3-26.7 11.6-11.2-0.3-21.1-5.1-27.5-12.6-0.1 0.2-0.2 0.4-0.2 0.5-3.1 0.9-6 2.7-8.4 5.4l-0.2 0.2s-0.5 0.6-1.5 1.7c-0.9 1.1-2.2 2.6-3.7 4.5-3.1 3.9-7.2 9.5-11.7 16.6-0.9 1.4-1.7 2.8-2.6 4.3h109.6c-3.4-7.1-6.5-12.8-8.9-16.9-1.5-2.2-2.6-3.8-3.3-5z"/>
 <circle cy="47.5" cx="76.3" r="2" fill="#444"/>
 <circle cy="47.6" cx="50.7" r="2" fill="#444"/>
 <path opacity="0.97" d="m35.351 91.471 24.451 1.473 4.4189 13.257 4.4189-14.14 24.157-2.6513 9.7215 15.319-19.148 2.9459-20.621 0.88377s-41.243-2.6513-40.359-3.8297c0.88377-1.1784 12.962-13.257 12.962-13.257z" fill-rule="evenodd" fill="#212121"/>
</svg>
