<?xml version="1.0" encoding="UTF-8" standalone="no"?>
<svg
   xmlns:dc="http://purl.org/dc/elements/1.1/"
   xmlns:cc="http://creativecommons.org/ns#"
   xmlns:rdf="http://www.w3.org/1999/02/22-rdf-syntax-ns#"
   xmlns:svg="http://www.w3.org/2000/svg"
   xmlns="http://www.w3.org/2000/svg"
   xmlns:sodipodi="http://sodipodi.sourceforge.net/DTD/sodipodi-0.dtd"
   xmlns:inkscape="http://www.inkscape.org/namespaces/inkscape"
   inkscape:dataloss="true"
   sodipodi:docname="kenan.svg"
   inkscape:version="0.91 r13725"
   version="1.1"
   id="svg-1"
   display="block"
   pointer-events="none"
   width="100%"
   height="100%"
   viewBox="0 0 128 128">
  <metadata
     id="metadata3456">
    <rdf:RDF>
      <cc:Work
         rdf:about="">
        <dc:format>image/svg+xml</dc:format>
        <dc:type
           rdf:resource="http://purl.org/dc/dcmitype/StillImage" />
        <dc:title></dc:title>
      </cc:Work>
    </rdf:RDF>
  </metadata>
  <defs
     id="defs3454" />
  <sodipodi:namedview
     inkscape:current-layer="svg-1"
     inkscape:cy="83.403722"
     inkscape:cx="58.586459"
     inkscape:zoom="2.4002961"
     showgrid="false"
     id="namedview3452"
     inkscape:window-height="480"
     inkscape:window-width="640"
     inkscape:pageshadow="2"
     inkscape:pageopacity="0"
     guidetolerance="10"
     gridtolerance="10"
     objecttolerance="10"
     borderopacity="1"
     bordercolor="#666666"
     pagecolor="#ffffff" />
  <path
     d="m -1.178366,-1.1783659 129.472966,0 0,129.4729559 -129.472966,0 z"
     id="path3440"
     inkscape:connector-curvature="0"
     style="fill:#4db6ac" />
  <path
     d="M 100.7837,87.643066 C 67.676053,67.543983 128.86201,60.018004 118.04198,51.900398 88.946801,52.872036 120.65911,23.716169 105.23634,26.099556 108.24444,-5.7868245 5.6615725,0.395284 7.9780725,51.615655 c 23.6046285,0.495836 20.1901795,4.41677 20.1901795,4.41677 l 2.4611,7.572935 C 54.582644,73.718312 15.461083,82.06124 16.974222,82.782593 26.315032,87.916346 31.850391,90.865 82.505711,91.96761 73.027057,87.721293 112.06508,88.255375 100.7837,87.643066 Z"
     id="path3450"
     inkscape:connector-curvature="0"
     style="fill:#3e2723"
     sodipodi:nodetypes="ccccccccc" />
  <path
     d="m 90.535098,93.327043 c -6.4,7.299997 -16.2,12.099997 -27.3,12.399997 -10.7,-0.3 -20.3,-4.7 -26.7,-11.599997 l -0.2,0.1 c 17,-13.3 12.9,-23.4 8.5,-28.6 -1.3,-1.2 -2.8,-2.5 -4.4,-3.9 l -13.1,-11 c -1.5,-1.2 -2.6,-3 -2.9,-5.1 -0.6,-4.4 2.5,-8.4 6.9,-9.1 1.5,-0.2 3,0 4.3,0.6 0.3,-1.3 0.4,-2.7 1.6,-3.5 1.4,-0.9 2.8,-1.7 4.2,-2.5 7.1,-3.9 14.9,-6.6 23,-7.9 5.4,-0.9 11,-1.2 16.1,0.7 3.3,1.2 6.1,3.2 8.7,5.6 1.3,1.2 2.5,2.4 3.7,3.7 l 1.8,1.9 c 0.3,0.3 0.5,0.6 0.8,0.8 0.1,0.1 0.2,0 0.4,0.2 -0.1,0.2 -0.1,0.5 -0.1,0.6 1,-0.3 2.1,-0.4 3.2,-0.2 4.400002,0.6 7.500002,4.7 6.900002,9.1 -0.3,2.1 -1.3,3.8 -2.8,5.1 l -11.000002,9.3 c -1.8,1.5 -3.3,3.8 -4.6,5.7 -1.5,2.3 -2.8,4.9 -3.5,7.6 -1.7,6.8 0.8,13.4 5.4,18.4 0.5,0.6 1.1,1 1.4,1.7 0.2,0.6 0.4,1.3 0.6,2 0.4,1.5 0.5,3.1 0.3,4.599997 -0.4,3.1 -1.8,6.1 -4.1,8.2 -3.3,3 -8,4 -12.4,4.5 -5.2,0.6 -10.5,0.7 -15.7,0.2 -4.5,-0.4 -9.1,-1.2 -13,-3.4 -5.6,-3.1 -9.6,-8.9 -10.5,-15.199997 m 14.4,-49.8 c -0.9,0 -1.6,0.7 -1.6,1.6 0,0.9 0.7,1.6 1.6,1.6 0.9,0 1.6,-0.7 1.6,-1.6 0.1,-0.9 -0.7,-1.6 -1.6,-1.6 z m 25.7,0 c -0.9,0 -1.6,0.7 -1.6,1.6 0,0.9 0.7,1.6 1.6,1.6 0.9,0 1.6,-0.7 1.6,-1.6 0.1,-0.9 -0.7,-1.6 -1.6,-1.6 z"
     id="path3442"
     inkscape:connector-curvature="0"
     style="fill:#ffe0b2;stroke-width:0.9;stroke-miterlimit:4;stroke-dasharray:none" />
  <path
     d="M105.3 106.1c-.9-1.3-1.3-1.9-1.3-1.9l-.2-.3c-.6-.9-1.2-1.7-1.9-2.4-3.2-3.5-7.3-5.4-11.4-5.7 0 0 .1 0 .1.1l-.2-.1c-6.4 6.9-16 11.3-26.7 11.6-11.2-.3-21.1-5.1-27.5-12.6-.1.2-.2.4-.2.5-3.1.9-6 2.7-8.4 5.4l-.2.2s-.5.6-1.5 1.7c-.9 1.1-2.2 2.6-3.7 4.5-3.1 3.9-7.2 9.5-11.7 16.6-.9 1.4-1.7 2.8-2.6 4.3h109.6c-3.4-7.1-6.5-12.8-8.9-16.9-1.5-2.2-2.6-3.8-3.3-5z"
     id="path3444"
     fill="#E0F7FA"
     style="fill:#424242" />
  <circle
     cx="76.3"
     cy="47.5"
     r="2"
     id="circle3446"
     fill="#444" />
  <circle
     cx="50.7"
     cy="47.6"
     r="2"
     id="circle3448"
     fill="#444" />
  <path
     style="opacity:0.97000002;fill:#212121;fill-opacity:1;fill-rule:evenodd;stroke:none;stroke-width:24.56858635;stroke-linecap:round;stroke-linejoin:round;stroke-miterlimit:4;stroke-dasharray:none;stroke-dashoffset:0;stroke-opacity:1"
     d="m 35.350978,91.470656 24.451093,1.472958 4.418873,13.256616 4.418872,-14.140391 24.156502,-2.651323 9.721522,15.318754 -19.14845,2.94592 -20.621404,0.88377 c 0,0 -41.242808,-2.65132 -40.359033,-3.82969 0.883774,-1.17836 12.962025,-13.256614 12.962025,-13.256614 z"
     id="path4312"
     inkscape:connector-curvature="0" />
</svg>
