<svg xmlns:rdf="http://www.w3.org/1999/02/22-rdf-syntax-ns#" xmlns="http://www.w3.org/2000/svg" xmlns:osb="http://www.openswatchbook.org/uri/2009/osb" viewBox="0 0 200 200" version="1.1" xmlns:cc="http://creativecommons.org/ns#" xmlns:dc="http://purl.org/dc/elements/1.1/">
 <title>templates_mo</title>
 <g transform="matrix(.36809 0 0 .36809 588.62 -151.27)">
  <g fill-rule="evenodd">
   <path d="m-1224.7 819.6 30.821 51.09-49.086-16.305 6.8492 47.829-43.378-41.306-11.415 41.306-18.265-66.308c15.115-32.606 51.906-44.44 84.474-16.305z" fill="#ff9800"/>
   <path d="m-1416.4 820.52-30.822 51.09 49.086-16.305-6.8492 47.829 43.378-41.306 11.415 41.306 18.265-66.308c-15.115-32.606-51.906-44.44-84.474-16.305z" fill="#ff9800"/>
   <path d="m-1327.8 838.29c-49.801-1.6456-95.858-47.745-102.91-87.581-10.331-58.329 27.152-157.06 100.13-157.2 78.375-0.14272 122.56 106.18 108.48 168.43-8.4957 37.548-58.459 77.914-105.69 76.353z" fill="#424242"/>
   <path d="m-1321.8 647.13c-37.774 1.2482-72.709 36.215-78.061 66.431-7.8363 44.243 20.595 119.13 75.951 119.24 59.448 0.10825 92.964-80.536 82.28-127.75-6.4441-28.48-44.342-59.098-80.17-57.914z" fill="#efebe9"/>
   <path d="m-1405.1 638.8s-46.536 52.141-72.979 74.827c-10.052 8.6239-32.423 9.8505-32.333 23.095 0.1253 18.365 26.909 30.864 45.266 31.409 23.068 0.68441 59.122-36.028 59.122-36.028z" fill="#424242"/>
   <path d="m-1269.4 642.88s76.247-0.36527 101.92 23.192c12.68 11.636 7.4396 34.093 15.728 49.176 0.7554 1.3746 3.6605 2.1832 3.0148 3.6126-9.4998 21.032-69.21 1.8602-69.21 1.8602z" fill="#424242"/>
   <path d="m-1132.3 597.4-120.63 29.269 75.327 30.79 15.894-21.146 34.476-21.707z" fill="#01579b"/>
   <path d="m-1263.1 626.17s50.949-47.528 46.641-77.316c-4.6896-32.426-41.492-55.857-72.536-66.33-46.308-15.621-112.08-21.977-146.02 13.182-28.842 29.874-31.39 90.9-6.8356 124.39 22.891 31.219 73.808 29.606 112.51 28.789 25.702-0.54232 73.844-22.253 73.844-22.253" fill="#424242"/>
   <path d="m-1394.7 611.16s-34.125-12.454-33.912-25.528c0.2002-12.244 32.527-23.096 32.527-23.096s-37.398-17.041-36.68-32.213c0.3265-6.8944 10.971-10.278 17.994-13.372 17.356-7.6467 39.909-20.038 56.75-11.548 12.15 6.1251 12.457 35.252 12.457 35.252s9.1-32.055 24.222-37.684c20.195-7.5164 56.54-3.6296 63.67 14.587 6.0447 15.443-33.912 38.899-33.912 38.899s34.66 17.324 33.219 31.606c-1.5839 15.701-42.908 28.567-42.908 28.567l-93.43-2.4312" fill="#efebe9"/>
   <path d="m-1414.7 649.09 1.3397 5.03c0.4112-4.1256 120.84-22.882 148.89-7.3262 13.959 7.7428 24.199-41.617 15.6-34.265-35.728 30.542-154.73 21.725-186.11 11.593-6.7447-2.1778 20.685 22.294 20.685 22.294z" fill="#03a9f4"/>
   <path d="m-1256.8 629.49 57.562-6.0107 28.187-35.885" fill="#03a9f4"/>
  </g>
  <g transform="translate(-1437.4 62.818)">
   <g transform="matrix(.97452 -.22432 .22432 .97452 304.47 346.97)">
    <path style="color-rendering:auto;color:#000000;isolation:auto;mix-blend-mode:normal;shape-rendering:auto;solid-color:#000000;image-rendering:auto" d="m153.73-247.12a17.783 17.783 0 0 1 -17.783 17.783 17.783 17.783 0 0 1 -17.783 -17.783 17.783 17.783 0 0 1 17.783 -17.783 17.783 17.783 0 0 1 17.783 17.783z" fill-rule="evenodd" transform="rotate(225.16)"/>
    <path style="color-rendering:auto;color:#000000;isolation:auto;mix-blend-mode:normal;shape-rendering:auto;solid-color:#000000;image-rendering:auto" d="m297.31-203.23a4.9423 4.9319 0 0 1 -4.9423 4.9319 4.9423 4.9319 0 0 1 -4.9423 -4.9319 4.9423 4.9319 0 0 1 4.9423 -4.9319 4.9423 4.9319 0 0 1 4.9423 4.9319z" fill-rule="evenodd" transform="matrix(-.56010 .82843 .56452 .82542 0 0)" fill="#d7ccc8"/>
    <path style="color-rendering:auto;color:#000000;isolation:auto;mix-blend-mode:normal;shape-rendering:auto;solid-color:#000000;image-rendering:auto" d="m318.89-224a3.5904 3.5801 0 0 1 -3.5904 3.5801 3.5904 3.5801 0 0 1 -3.5904 -3.5801 3.5904 3.5801 0 0 1 3.5904 -3.5801 3.5904 3.5801 0 0 1 3.5904 3.5801z" fill-rule="evenodd" transform="matrix(-.49888 .86667 .50319 .86417 0 0)" fill="#d7ccc8"/>
   </g>
  </g>
  <g transform="translate(-1369.1 59.122)">
   <g transform="matrix(.97452 -.22432 .22432 .97452 304.47 346.97)">
    <path style="color-rendering:auto;color:#000000;isolation:auto;mix-blend-mode:normal;shape-rendering:auto;solid-color:#000000;image-rendering:auto" d="m153.73-247.12a17.783 17.783 0 0 1 -17.783 17.783 17.783 17.783 0 0 1 -17.783 -17.783 17.783 17.783 0 0 1 17.783 -17.783 17.783 17.783 0 0 1 17.783 17.783z" fill-rule="evenodd" transform="rotate(225.16)"/>
    <path style="color-rendering:auto;color:#000000;isolation:auto;mix-blend-mode:normal;shape-rendering:auto;solid-color:#000000;image-rendering:auto" d="m297.31-203.23a4.9423 4.9319 0 0 1 -4.9423 4.9319 4.9423 4.9319 0 0 1 -4.9423 -4.9319 4.9423 4.9319 0 0 1 4.9423 -4.9319 4.9423 4.9319 0 0 1 4.9423 4.9319z" fill-rule="evenodd" transform="matrix(-.56010 .82843 .56452 .82542 0 0)" fill="#d7ccc8"/>
    <path style="color-rendering:auto;color:#000000;isolation:auto;mix-blend-mode:normal;shape-rendering:auto;solid-color:#000000;image-rendering:auto" d="m318.89-224a3.5904 3.5801 0 0 1 -3.5904 3.5801 3.5904 3.5801 0 0 1 -3.5904 -3.5801 3.5904 3.5801 0 0 1 3.5904 -3.5801 3.5904 3.5801 0 0 1 3.5904 3.5801z" fill-rule="evenodd" transform="matrix(-.49888 .86667 .50319 .86417 0 0)" fill="#d7ccc8"/>
   </g>
  </g>
  <g fill-rule="evenodd">
   <path d="m-1390.1 585.46s16.791 19.551 28.416 23.621c16.607 5.8134 37.388 7.4753 52.775-1.0587 7.482-4.1497 18.057-13.951 14.025-21.497-14.959-27.994-95.216-1.0652-95.216-1.0652z" fill="#f57f17"/>
   <path d="m-1389.5 585.19 29.991-21.586s37.817-4.8552 52.573 4.729c7.1751 4.6604 12.495 22.421 12.495 22.421z" fill="#f9a825"/>
   <path d="m-1475.5 520.54 120.33 24.239 13.377-3.9324c-1.5459-56.966-73.853-61.033-107.35-76.242z"/>
   <path d="m-1216.8 517.24-126.67 25.517-6.108-4.3852c-14.197-31.216 61.214-65.35 105.03-80.017z"/>
  </g>
 </g>
</svg>
