<?xml version="1.0" encoding="UTF-8" standalone="no"?>
<svg xmlns:rdf="http://www.w3.org/1999/02/22-rdf-syntax-ns#" xmlns="http://www.w3.org/2000/svg" height="720" width="2550" version="1.1" xmlns:cc="http://creativecommons.org/ns#" xmlns:dc="http://purl.org/dc/elements/1.1/">
 <g stroke-width="1.51">
  <path stroke="#e89364" d="m627-489l309-3 869-68z" fill="#e89364"/>
  <path stroke="#e47f4e" d="m-143-499l770 10 1178-71z" fill="#e47f4e"/>
  <path stroke="#dd9365" d="m-143-499l1948-61 733-67z" fill="#dd9365"/>
  <path stroke="#73b861" d="m2702 697l132 171 31-400z" fill="#73b861"/>
  <path stroke="#96b970" d="m2766 290l99 178 52-543z" fill="#96b970"/>
  <path stroke="#83b86b" d="m2834 868l-21 154 267-1363z" fill="#83b86b"/>
  <path stroke="#97773d" d="m2538-627l379 552 163-266z" fill="#97773d"/>
  <path stroke="#969d55" d="m2917-75l-52 543 215-809z" fill="#969d55"/>
  <path stroke="#91bb7b" d="m2865 468l-31 400 246-1209z" fill="#91bb7b"/>
  <path stroke="#95c782" d="m2766 290l-41 83 140 95z" fill="#95c782"/>
  <path stroke="#9caf61" d="m2664 1l102 289 151-365z" fill="#9caf61"/>
  <path stroke="#a48c49" d="m2538-627l126 628 253-76z" fill="#a48c49"/>
  <path stroke="#9fc06f" d="m2664 1l-50 219 152 70z" fill="#9fc06f"/>
  <path stroke="#89c371" d="m2725 373l-23 324 163-229z" fill="#89c371"/>
  <path stroke="#af9950" d="m2538-627l-120 650 246-22z" fill="#af9950"/>
  <path stroke="#56ad59" d="m2702 697l111 325 21-154z" fill="#56ad59"/>
  <path stroke="#b08345" d="m1805-560l298 73 435-140z" fill="#b08345"/>
  <path stroke="#59b45e" d="m2702 697l-490 306 541 112z" fill="#59b45e"/>
  <path stroke="#47a958" d="m2702 697l51 418 60-93z" fill="#47a958"/>
  <path stroke="#9acf7b" d="m2243 393l459 304 23-324z" fill="#9acf7b"/>
  <path stroke="#9cc97e" d="m2614 220l111 153 41-83z" fill="#9cc97e"/>
  <path stroke="#4aac5a" d="m2212 1003l-30 241 571-129z" fill="#4aac5a"/>
  <path stroke="#b58e48" d="m2103-487l315 510 120-650z" fill="#b58e48"/>
  <path stroke="#a8d387" d="m2614 220l-371 173 482-20z" fill="#a8d387"/>
  <path stroke="#8dce6b" d="m2243 393l-31 610 490-306z" fill="#8dce6b"/>
  <path stroke="#a9bc69" d="m2418 23l196 197 50-219z" fill="#a9bc69"/>
  <path stroke="#b2d07b" d="m2418 23l-175 370 371-173z" fill="#b2d07b"/>
  <path stroke="#d7b05a" d="m1800-264l268 455 35-678z" fill="#d7b05a"/>
  <path stroke="#98d369" d="m1994 910l218 93 31-610z" fill="#98d369"/>
  <path stroke="#b3de74" d="m1905 582l89 328 249-517z" fill="#b3de74"/>
  <path stroke="#c4d476" d="m2068 191l37 23 313-191z" fill="#c4d476"/>
  <path stroke="#c7b75f" d="m2103-487l-35 678 350-168z" fill="#c7b75f"/>
  <path stroke="#bfd77e" d="m2105 214l138 179 175-370z" fill="#bfd77e"/>
  <path stroke="#e19762" d="m936-492l702 12 167-80z" fill="#e19762"/>
  <path stroke="#6baf5b" d="m2074 1170l-578 157 686-83z" fill="#6baf5b"/>
  <path stroke="#5eb35c" d="m2074 1170l108 74 30-241z" fill="#5eb35c"/>
  <path stroke="#c9e88e" d="m2105 214l-200 368 338-189z" fill="#c9e88e"/>
  <path stroke="#75c062" d="m1994 910l80 260 138-167z" fill="#75c062"/>
  <path stroke="#d1e990" d="m2068 191l-163 391 200-368z" fill="#d1e990"/>
  <path stroke="#e1c56b" d="m1800-264l-178 132 446 323z" fill="#e1c56b"/>
  <path stroke="#e6d578" d="m1622-132l-61 178 507 145z" fill="#e6d578"/>
  <path stroke="#d2ec8f" d="m1742 537l163 45 163-391z" fill="#d2ec8f"/>
  <path stroke="#d1934a" d="m1805-560l-5 296 303-223z" fill="#d1934a"/>
  <path stroke="#78be64" d="m1994 910l-498 417 578-157z" fill="#78be64"/>
  <path stroke="#e2eb91" d="m1561 46l181 491 326-346z" fill="#e2eb91"/>
  <path stroke="#b6e074" d="m1905 582l-333 123 422 205z" fill="#b6e074"/>
  <path stroke="#9ad273" d="m1572 705l-76 622 498-417z" fill="#9ad273"/>
  <path stroke="#f19e6e" d="m936-492l292 100 410-88z" fill="#f19e6e"/>
  <path stroke="#da9751" d="m1638-480l162 216 5-296z" fill="#da9751"/>
  <path stroke="#cce983" d="m1742 537l-170 168 333-123z" fill="#cce983"/>
  <path stroke="#f2f9ac" d="m1561 46l-277 424 458 67z" fill="#f2f9ac"/>
  <path stroke="#e7aa5f" d="m1638-480l-16 348 178-132z" fill="#e7aa5f"/>
  <path stroke="#a2d383" d="m1134 1100l362 227 76-622z" fill="#a2d383"/>
  <path stroke="#ddf192" d="m1284 470l288 235 170-168z" fill="#ddf192"/>
  <path stroke="#fbf2a6" d="m1255 147l29 323 277-424z" fill="#fbf2a6"/>
  <path stroke="#c5e693" d="m1119 747l15 353 438-395z" fill="#c5e693"/>
  <path stroke="#f1b16a" d="m1405-156l217 24 16-348z" fill="#f1b16a"/>
  <path stroke="#f2a86c" d="m1228-392l177 236 233-324z" fill="#f2a86c"/>
  <path stroke="#94b770" d="m1134 1100l-604 207 966 20z" fill="#94b770"/>
  <path stroke="#f4cb7a" d="m1405-156l156 202 61-178z" fill="#f4cb7a"/>
  <path stroke="#dff29b" d="m1284 470l-165 277 453-42z" fill="#dff29b"/>
  <path stroke="#fada8b" d="m1405-156l-150 303 306-101z" fill="#fada8b"/>
  <path stroke="#ffd88f" d="m1051-42l204 189 150-303z" fill="#ffd88f"/>
  <path stroke="#ffbc7e" d="m1228-392l-177 350 354-114z" fill="#ffbc7e"/>
  <path stroke="#b5d683" d="m1119 747l-115 283 130 70z" fill="#b5d683"/>
  <path stroke="#e9ee96" d="m873 525l246 222 165-277z" fill="#e9ee96"/>
  <path stroke="#fbf4a9" d="m1028 218l-155 307 411-55z" fill="#fbf4a9"/>
  <path stroke="#fff5ae" d="m1255 147l-227 71 256 252z" fill="#fff5ae"/>
  <path stroke="#9dbc6c" d="m1004 1030l-474 277 604-207z" fill="#9dbc6c"/>
  <path stroke="#faa66b" d="m936-492l115 450 177-350z" fill="#faa66b"/>
  <path stroke="#ffe193" d="m1051-42l-23 260 227-71z" fill="#ffe193"/>
  <path stroke="#fba362" d="m936-492l-319 260 434 190z" fill="#fba362"/>
  <path stroke="#dce486" d="m873 525l91 260 155-38z" fill="#dce486"/>
  <path stroke="#c5db81" d="m964 785l40 245 115-283z" fill="#c5db81"/>
  <path stroke="#fed37f" d="m491 92l537 126 23-260z" fill="#fed37f"/>
  <path stroke="#fdb669" d="m617-232l-126 324 560-134z" fill="#fdb669"/>
  <path stroke="#c0d377" d="m964 785l-244 73 284 172z" fill="#c0d377"/>
  <path stroke="#fde79b" d="m549 440l324 85 155-307z" fill="#fde79b"/>
  <path stroke="#ffd889" d="m491 92l58 348 479-222z" fill="#ffd889"/>
  <path stroke="#aabb68" d="m720 858l-190 449 474-277z" fill="#aabb68"/>
  <path stroke="#f0864e" d="m627-489l-10 257 319-260z" fill="#f0864e"/>
  <path stroke="#d8db7a" d="m873 525l-153 333 244-73z" fill="#d8db7a"/>
  <path stroke="#e7d87b" d="m549 440l171 418 153-333z" fill="#e7d87b"/>
  <path stroke="#a08343" d="m-2 1035l-455 24 987 248z" fill="#a08343"/>
  <path stroke="#fca75d" d="m425-44l66 136 126-324z" fill="#fca75d"/>
  <path stroke="#e65c39" d="m-143-499l572 149 198-139z" fill="#e65c39"/>
  <path stroke="#dabd63" d="m354 606l-139 111 505 141z" fill="#dabd63"/>
  <path stroke="#c3b25d" d="m215 717l73 388 432-247z" fill="#c3b25d"/>
  <path stroke="#a9a95a" d="m288 1105l242 202 190-449z" fill="#a9a95a"/>
  <path stroke="#e5cb6f" d="m549 440l-195 166 366 252z" fill="#e5cb6f"/>
  <path stroke="#a3924c" d="m288 1105l-290-70 532 272z" fill="#a3924c"/>
  <path stroke="#ffc980" d="m491 92l-139 195 197 153z" fill="#ffc980"/>
  <path stroke="#f18049" d="m429-350l188 118 10-257z" fill="#f18049"/>
  <path stroke="#f98e51" d="m429-350l-4 306 192-188z" fill="#f98e51"/>
  <path stroke="#f9c97f" d="m352 287l2 319 195-166z" fill="#f9c97f"/>
  <path stroke="#f77e4a" d="m77-221l348 177 4-306z" fill="#f77e4a"/>
  <path stroke="#feb66b" d="m425-44l-73 331 139-195z" fill="#feb66b"/>
  <path stroke="#fb9d5a" d="m77-221l275 508 73-331z" fill="#fb9d5a"/>
  <path stroke="#e95737" d="m-143-499l220 278 352-129z" fill="#e95737"/>
  <path stroke="#f79558" d="m77-221l-268 356 543 152z" fill="#f79558"/>
  <path stroke="#bc9b51" d="m215 717l-217 318 290 70z" fill="#bc9b51"/>
  <path stroke="#fcaf78" d="m-191 135l201 542 342-390z" fill="#fcaf78"/>
  <path stroke="#f1b76c" d="m352 287l-342 390 344-71z" fill="#f1b76c"/>
  <path stroke="#e0ad5d" d="m10 677l205 40 139-111z" fill="#e0ad5d"/>
  <path stroke="#cb9e50" d="m10 677l-12 358 217-318z" fill="#cb9e50"/>
  <path stroke="#eb9c63" d="m-191 135l-200 420 401 122z" fill="#eb9c63"/>
  <path stroke="#bf9249" d="m-204 902l202 133 12-358z" fill="#bf9249"/>
  <path stroke="#dd3f2c" d="m-143-499l-239 116 459 162z" fill="#dd3f2c"/>
  <path stroke="#e9613a" d="m-382-383l191 518 268-356z" fill="#e9613a"/>
  <path stroke="#db5538" d="m-382-383l-100 102 291 416z" fill="#db5538"/>
  <path stroke="#e8966a" d="m-441 288l50 267 200-420z" fill="#e8966a"/>
  <path stroke="#a98041" d="m-204 902l-253 157 455-24z" fill="#a98041"/>
  <path stroke="#c78f46" d="m-383 755l179 147 214-225z" fill="#c78f46"/>
  <path stroke="#d0924e" d="m-391 555l8 200 393-78z" fill="#d0924e"/>
  <path stroke="#e0794a" d="m-482-281l41 569 250-153z" fill="#e0794a"/>
  <path stroke="#ac8144" d="m-383 755l-74 304 253-157z" fill="#ac8144"/>
  <path stroke="#b68546" d="m-391 555l-66 504 74-304z" fill="#b68546"/>
  <path stroke="#c78c50" d="m-441 288l-16 771 66-504z" fill="#c78c50"/>
  <path stroke="#e0936d" d="m-482-281l25 1340 16-771z" fill="#e0936d"/>
 </g>
</svg>
