<?xml version="1.0" encoding="UTF-8" standalone="no"?>
<svg
   xmlns:dc="http://purl.org/dc/elements/1.1/"
   xmlns:cc="http://creativecommons.org/ns#"
   xmlns:rdf="http://www.w3.org/1999/02/22-rdf-syntax-ns#"
   xmlns:svg="http://www.w3.org/2000/svg"
   xmlns="http://www.w3.org/2000/svg"
   xmlns:xlink="http://www.w3.org/1999/xlink"
   xmlns:sodipodi="http://sodipodi.sourceforge.net/DTD/sodipodi-0.dtd"
   xmlns:inkscape="http://www.inkscape.org/namespaces/inkscape"
   id="svg5546"
   style="pointer-events: none; display: block;"
   preserveAspectRatio="xMidYMid meet"
   fit=""
   xml:space="preserve"
   viewBox="0 0 350 350"
   height="100%"
   width="100%"
   y="0px"
   x="0px"
   version="1.1"
   inkscape:version="0.91 r13725"
   sodipodi:docname="robbie.svg"><sodipodi:namedview
     pagecolor="#ffffff"
     bordercolor="#666666"
     borderopacity="1"
     objecttolerance="10"
     gridtolerance="10"
     guidetolerance="10"
     inkscape:pageopacity="0"
     inkscape:pageshadow="2"
     inkscape:window-width="2560"
     inkscape:window-height="1413"
     id="namedview55147"
     showgrid="false"
     inkscape:zoom="1.89857"
     inkscape:cx="410.15165"
     inkscape:cy="253.72777"
     inkscape:window-x="1280"
     inkscape:window-y="27"
     inkscape:window-maximized="1"
     inkscape:current-layer="g5689" /><metadata
     id="metadata5626"><rdf:RDF><cc:Work
         rdf:about=""><dc:format>image/svg+xml</dc:format><dc:type
           rdf:resource="http://purl.org/dc/dcmitype/StillImage" /><dc:title></dc:title></cc:Work></rdf:RDF></metadata><defs
     id="defs5548"><linearGradient
       id="linearGradient7483"><stop
         id="stop7485"
         offset="0"
         style="stop-color:#ef9a9a;stop-opacity:1;" /><stop
         id="stop7487"
         offset="1"
         style="stop-color:#4a148c;stop-opacity:1" /></linearGradient><linearGradient
       id="d"><stop
         id="stop5551"
         offset="0" /><stop
         id="stop5553"
         stop-opacity="0"
         offset="1" /></linearGradient><linearGradient
       id="a"><stop
         id="stop5556"
         offset="0" /><stop
         id="stop5558"
         stop-opacity="0"
         offset="1" /></linearGradient><linearGradient
       id="c"><stop
         id="stop5561"
         stop-color="#6687e7"
         offset="0" /><stop
         id="stop5563"
         stop-color="#4169e1"
         offset="1" /></linearGradient><linearGradient
       id="linearGradient5565"
       gradientUnits="userSpaceOnUse"
       xlink:href="#a"
       y2="79.838"
       x2="81.171"
       y1="63.205"
       x1="64.667" /><clipPath
       id="clipPath5567"><rect
         id="rect5569"
         fill="url(#b)"
         y="31.071"
         x="27.857"
         ry="30"
         rx="30"
         height="60"
         width="60" /></clipPath><radialGradient
       gradientTransform="translate(2.857 1.071)"
       gradientUnits="userSpaceOnUse"
       xlink:href="#c"
       id="b"
       fy="60"
       fx="55"
       r="30.5"
       cy="60"
       cx="55" /><linearGradient
       id="linearGradient5572"
       gradientUnits="userSpaceOnUse"
       xlink:href="#a"
       y2="79.266"
       x2="80.269"
       y1="51.119"
       x1="64.018" /><linearGradient
       id="linearGradient5574"
       gradientTransform="matrix(2.49 0 0 2.49 -42.782 -1335.017)"
       gradientUnits="userSpaceOnUse"
       xlink:href="#d"
       y2="938.157"
       x2="83.75"
       y1="887.493"
       x1="35.915" /><radialGradient
       id="radialGradient5576"
       gradientTransform="translate(-.177 852.362)"
       gradientUnits="userSpaceOnUse"
       xlink:href="#e"
       fy="60"
       fx="55"
       r="30.5"
       cy="60"
       cx="55" /><linearGradient
       id="e"><stop
         id="stop5579"
         stop-color="#6687e7"
         offset="0" /><stop
         id="stop5581"
         stop-color="#4169e1"
         offset="1" /></linearGradient><clipPath
       id="clipPath5583"><path
         id="path5585"
         stroke="#000"
         fill="url(#f)"
         d="M55.154 29.993c16.62 0 30 13.38 30 30 0 16.62-13.38 30-30 30-16.62 0-30-13.38-30-30 0-16.62 13.38-30 30-30z" /></clipPath><radialGradient
       gradientTransform="translate(.154 -.007)"
       gradientUnits="userSpaceOnUse"
       xlink:href="#e"
       id="f"
       fy="60"
       fx="55"
       r="30.5"
       cy="60"
       cx="55" /><clipPath
       id="clipPath5588"><path
         id="path5590"
         stroke="#000"
         fill="url(#g)"
         d="M58.01 31.064c16.62 0 30 13.38 30 30 0 16.62-13.38 30-30 30-16.62 0-30-13.38-30-30 0-16.62 13.38-30 30-30z" /></clipPath><radialGradient
       gradientTransform="translate(3.011 1.064)"
       gradientUnits="userSpaceOnUse"
       xlink:href="#e"
       id="g"
       fy="60"
       fx="55"
       r="30.5"
       cy="60"
       cx="55" /><linearGradient
       id="linearGradient5593"
       gradientTransform="matrix(2.49 0 0 2.49 17.951 -1260.201)"
       gradientUnits="userSpaceOnUse"
       xlink:href="#c"
       y2="824.674"
       x2="-114.905"
       y1="823.26"
       x1="-115.966" /><linearGradient
       id="linearGradient5595"
       gradientTransform="matrix(2.49 0 0 2.49 -42.782 -1335.017)"
       gradientUnits="userSpaceOnUse"
       xlink:href="#d"
       y2="938.157"
       x2="83.75"
       y1="887.493"
       x1="35.915" /><linearGradient
       id="linearGradient5597"
       gradientUnits="userSpaceOnUse"
       xlink:href="#a"
       y2="79.266"
       x2="80.269"
       y1="51.119"
       x1="64.018" /><linearGradient
       id="linearGradient5599"
       gradientTransform="matrix(2.49 0 0 2.49 -42.782 -1335.017)"
       gradientUnits="userSpaceOnUse"
       xlink:href="#d"
       y2="938.157"
       x2="83.75"
       y1="887.493"
       x1="35.915" /><linearGradient
       id="linearGradient5601"
       gradientUnits="userSpaceOnUse"
       xlink:href="#a"
       y2="79.266"
       x2="80.269"
       y1="51.119"
       x1="64.018" /><linearGradient
       id="linearGradient5603"
       gradientTransform="matrix(2.422 0 0 2.422 -56.389 -65.568)"
       gradientUnits="userSpaceOnUse"
       xlink:href="#a"
       y2="76.466"
       x2="59.644"
       y1="55.319"
       x1="24.297" /><filter
       id="filter6857"
       style="color-interpolation-filters:sRGB;"><feFlood
         id="feFlood6859"
         result="flood"
         flood-color="rgb(0,0,0)"
         flood-opacity="0.2" /><feComposite
         id="feComposite6861"
         result="composite1"
         operator="in"
         in2="SourceGraphic"
         in="flood" /><feGaussianBlur
         id="feGaussianBlur6863"
         result="blur"
         stdDeviation="3"
         in="composite1" /><feOffset
         id="feOffset6865"
         result="offset"
         dy="3"
         dx="-3" /><feComposite
         id="feComposite6867"
         result="composite2"
         operator="over"
         in2="offset"
         in="SourceGraphic" /></filter><radialGradient
       gradientTransform="matrix(-1.7212911,0.97353446,-0.57379594,-1.0145197,682.66856,352.97427)"
       gradientUnits="userSpaceOnUse"
       r="38.782139"
       fy="269.03268"
       fx="194.13527"
       cy="269.03268"
       cx="194.13527"
       id="radialGradient7489"
       xlink:href="#c" /><radialGradient
       inkscape:collect="always"
       xlink:href="#d"
       id="radialGradient55722"
       cx="194.20796"
       cy="328.1319"
       fx="194.20796"
       fy="328.1319"
       r="23.429367"
       gradientTransform="matrix(1,0,0,0.7359402,-3.5352873,75.156758)"
       gradientUnits="userSpaceOnUse" /><filter
       inkscape:collect="always"
       style="color-interpolation-filters:sRGB"
       id="filter56012"
       x="-0.7580769"
       width="2.5161538"
       y="-1.0373685"
       height="3.0747369"><feGaussianBlur
         inkscape:collect="always"
         stdDeviation="14.516774"
         id="feGaussianBlur56014" /></filter><clipPath
       clipPathUnits="userSpaceOnUse"
       id="clipPath56251"><path
         sodipodi:type="spiral"
         style="fill:#001312;fill-opacity:1;fill-rule:evenodd;stroke:none;stroke-width:1.6829524px;stroke-linecap:butt;stroke-linejoin:miter;stroke-opacity:1"
         id="path56253"
         sodipodi:cx="-93.243202"
         sodipodi:cy="-94.120468"
         sodipodi:expansion="7.21"
         sodipodi:revolution="33.208302"
         sodipodi:radius="167.31158"
         sodipodi:argument="-208.41663"
         sodipodi:t0="0.626095"
         d="m -97.386945,-98.061743 c 2.125378,-2.496737 5.976485,-2.675047 8.439728,-0.575401 2.718232,2.316992 2.911422,6.512324 0.622178,9.194532 -2.523302,2.956443 -7.089039,3.165573 -10.006773,0.672162 -3.212418,-2.745241 -3.438608,-7.709217 -0.725535,-10.880076 2.983791,-3.487264 8.375574,-3.731674 11.818248,-0.782484 3.782118,3.239983 4.046015,9.090958 0.843204,12.825281 -3.514898,4.098201 -9.858361,4.382894 -13.905365,0.907903 -4.43678,-3.80967 -4.74366,-10.680922 -0.9768,-15.062904 4.125494,-4.79917 11.561932,-5.1297 16.302499,-1.0501 5.18678,4.463605 5.542512,12.504826 1.128053,17.62897 -4.825318,5.601053 -13.513221,5.983616 -19.047382,1.210895 -6.04351,-5.211996 -6.45462,-14.590889 -1.29887,-20.563005 5.625068,-6.51576 15.741776,-6.95723 22.181384,-1.39227 7.019441,6.066041 7.493169,16.970026 1.491328,23.908305 -6.536458,7.556309 -18.279933,8.0643 -25.749792,1.596351 -8.12817,-7.037964 -8.67253,-19.676016 -1.70763,-27.712166 7.57227,-8.73693 21.162989,-9.31986 29.802019,-1.82547 9.384548,8.14114 10.008388,22.745753 1.950187,32.026221 -8.746439,10.073097 -24.429436,10.740277 -34.391946,2.082115 -10.80472,-9.390109 -11.5178,-26.219386 -2.2216,-36.906676 10.07417,-11.58166 28.121174,-12.34332 39.578203,-2.36898 12.406247,10.80071 13.219309,30.140589 2.524657,42.41464 -11.571948,13.280906 -32.2837,14.148315 -45.42447,2.688987 -14.20816,-12.390149 -15.13301,-34.556797 -2.86237,-48.616477 13.25769,-15.19065 36.96641,-16.17616 51.999823,-3.04523 16.231101,14.17706 17.280671,39.519379 3.237986,55.584056 -15.150806,17.332355 -42.222779,18.449522 -59.379079,3.441076 -18.49736,-16.181618 -19.68583,-45.083972 -3.65496,-63.395192 17.27227,-19.7292 48.110626,-20.99284 67.643108,-3.88011 21.031051,18.42566 22.373912,51.310687 4.117017,72.133945 -19.644767,22.406221 -54.692415,23.832528 -76.879255,4.366185 -23.85814,-20.932721 -25.37231,-58.26439 -4.62814,-81.89103 22.29275,-25.39038 62.035515,-26.99702 87.181702,-4.90342 27.006638,23.72821 28.710547,66.015015 5.192587,92.764189 -25.242568,28.710733 -70.212459,30.516931 -98.651869,5.496219 -30.50663,-26.839445 -32.42035,-74.637788 -5.81491,-104.858618 28.52258,-32.39847 79.301293,-34.42516 111.398827,-6.14928 34.3904972,30.29583 36.53583107,84.213623 6.499965,118.287387 -32.163232,36.4871243 -89.385832,38.7570236 -125.539742,6.867621 -38.69292,-34.128932 -41.09355,-94.829358 -7.25293,-133.171878 36.19724,-41.01262 100.55605,-43.55039 141.200331,-7.65658 43.45113,38.3726 46.132714,106.578147 8.079308,149.64223 -40.659637,46.013491 -112.908339,48.845837 -158.515289,8.521851 -48.70495,-43.063116 -51.69528,-119.559741 -8.98498,-167.837841 45.58797,-51.53092 126.545916,-54.68674 177.6288396,-9.46948 C 50.351529,-139.55599 53.68066,-53.914399 5.8307125,0.11257105 -45.191662,57.721503 -135.74845,61.232049 -192.86445,10.618451 c -60.87274,-53.94265 -64.57313,-149.655701 -11.05949,-210.011661 57.00575,-64.29457 158.125983,-68.19356 221.878963,-11.63788 43.597028,38.6752 63.133981,99.28213 51.425194,156.239869"
         transform="matrix(-0.04266541,0.17826879,-0.15206651,-0.05107703,337.11289,493.41893)" /></clipPath></defs><g
     transform="translate(-37.120517,-2.2095545)"
     id="g7165"><g
       transform="translate(-4.0609305,-23.112584)"
       id="g6825"
       style="filter:url(#filter6857)"><g
         id="g56016"
         transform="translate(129.03799,-51.703576)" /><g
         id="g5689"><circle
           cx="194.13527"
           cy="269.03268"
           r="38.782139"
           id="path6299"
           style="display:block;opacity:1;fill:url(#radialGradient7489);fill-opacity:1;fill-rule:evenodd;stroke:none;stroke-width:12.89999962;stroke-linecap:round;stroke-linejoin:round;stroke-miterlimit:4;stroke-dasharray:none;stroke-dashoffset:0;stroke-opacity:1;filter:url(#filter6857)"
           transform="matrix(0.67122603,0,0,0.67347464,90.01056,88.310253)" /><path
           inkscape:connector-curvature="0"
           id="path6806"
           d="M 81.869289,210.63472 156.86406,156.26351"
           style="display:block;fill:none;fill-rule:evenodd;stroke:#000000;stroke-width:5.35435867;stroke-linecap:butt;stroke-linejoin:miter;stroke-miterlimit:4;stroke-dasharray:none;stroke-opacity:1;filter:url(#filter6857)"
           transform="matrix(0.67122603,0,0,0.67347464,90.01056,88.310253)" /><path
           inkscape:connector-curvature="0"
           id="path6295"
           d="m 157.45669,152.26215 c 0,0 -31.9595,91.27765 -7.07058,124.61887 9.59664,12.85568 30.87092,9.54067 46.84254,11.04778 10.12856,0.95574 22.38357,4.81893 30.49186,-1.32574 16.55804,-12.54811 19.44408,-59.21606 19.44408,-59.21606 l -1.32574,-51.26166 c -22.29234,-53.57141 -53.1594,-52.57643 -88.38216,-23.86319 z"
           style="display:block;fill:#616161;fill-rule:evenodd;stroke:none;stroke-width:1px;stroke-linecap:butt;stroke-linejoin:miter;stroke-opacity:1;filter:url(#filter6857)"
           transform="matrix(0.67122603,0,0,0.67347464,90.01056,88.310253)" /><path
           id="path6787"
           d="m 149.36459,157.20095 30.62286,3.74974 -5.62461,81.24433 -32.49773,2.49983 c -5.80459,-30.20269 0.17314,-58.93258 7.49948,-87.4939 z"
           style="display:block;fill:#e91e63;fill-rule:evenodd;stroke:none;stroke-width:1px;stroke-linecap:butt;stroke-linejoin:miter;stroke-opacity:1;filter:url(#filter6857)"
           inkscape:connector-curvature="0"
           transform="matrix(0.67122603,0,0,0.67347464,90.01056,88.310253)" /><path
           inkscape:connector-curvature="0"
           id="path6233"
           d="m 148.39395,147.89608 30.78296,-9.06715 11.93015,6.72396"
           style="fill:none;fill-rule:evenodd;stroke:#9e9e9e;stroke-width:6.80000019;stroke-linecap:butt;stroke-linejoin:miter;stroke-miterlimit:4;stroke-dasharray:none;stroke-opacity:1" /><path
           sodipodi:nodetypes="cccccc"
           inkscape:connector-curvature="0"
           id="path6293"
           d="m 224.14322,186.9019 c 0,0 -100.78407,-25.10402 -100.42937,-26.45101 C 124.06857,159.10391 89.886438,35.975757 89.886438,35.975757 L 280.98191,35.271033 272.34502,160.92119 Z"
           style="display:block;fill:#757575;fill-rule:evenodd;stroke:#757575;stroke-width:5.20562696;stroke-linecap:round;stroke-linejoin:round;stroke-miterlimit:4;stroke-dasharray:none;stroke-opacity:1;filter:url(#filter6857)"
           transform="matrix(0.67122603,0,0,0.67347464,90.01056,88.310253)" /><path
           inkscape:connector-curvature="0"
           id="path6808"
           d="m 241.23317,166.26282 47.49669,43.12199 19.37365,-59.37086"
           style="display:block;fill:none;fill-rule:evenodd;stroke:#000000;stroke-width:5.94928789;stroke-linecap:round;stroke-linejoin:miter;stroke-miterlimit:4;stroke-dasharray:none;stroke-opacity:1;filter:url(#filter6857)"
           transform="matrix(0.67122603,0,0,0.67347464,90.01056,88.310253)" /><rect
           style="display:block;opacity:1;fill:#00bcd4;fill-opacity:1;fill-rule:evenodd;stroke:none;stroke-width:1.33858967;stroke-linecap:round;stroke-linejoin:round;stroke-miterlimit:4;stroke-dasharray:1.3385897, 10.70871757;stroke-dashoffset:0;stroke-opacity:1;filter:url(#filter6857)"
           id="rect55704"
           width="56.564598"
           height="59.657974"
           x="123.50222"
           y="186.27852"
           ry="0.622697"
           transform="matrix(0.67122603,0,0,0.67347464,90.01056,88.310253)" /><path
           inkscape:connector-curvature="0"
           id="path6785"
           d="m 245.92693,197.51064 -90.31279,-2.49983 0,44.3719 91.01837,3.74974 c 11.0684,-17.82423 8.9131,-32.79492 -0.70558,-45.62181 z"
           style="display:block;fill:#424242;fill-rule:evenodd;stroke:none;stroke-width:1px;stroke-linecap:butt;stroke-linejoin:miter;stroke-opacity:1;filter:url(#filter6857)"
           transform="matrix(0.67122603,0,0,0.67347464,90.01056,88.310253)" /><path
           inkscape:connector-curvature="0"
           id="path6789"
           d="m 179.98745,216.25933 18.12373,16.87382 3.12478,-25.62321 7.49948,25.62321 11.87417,-33.12269 1.87487,39.37225 17.49878,-36.87242 4.3747,28.12303 9.37434,-11.87417"
           style="display:block;fill:none;fill-rule:evenodd;stroke:#009688;stroke-width:1.48732197px;stroke-linecap:butt;stroke-linejoin:miter;stroke-opacity:1;filter:url(#filter6857)"
           transform="matrix(0.67122603,0,0,0.67347464,90.01056,88.310253)" /><path
           sodipodi:nodetypes="ccccccccc"
           style="display:block;fill:none;fill-rule:evenodd;stroke:#0091ea;stroke-width:1.48732197px;stroke-linecap:butt;stroke-linejoin:miter;stroke-opacity:1;filter:url(#filter6857)"
           d="m 226.38377,214.88796 -18.12373,16.87382 -3.12478,-25.62321 -7.49948,25.62321 -11.87417,-33.12269 -1.87487,39.37225 -17.49878,-36.87242 -4.3747,28.12303 -6.04513,-9.10909"
           id="path55702"
           inkscape:connector-curvature="0"
           transform="matrix(0.67122603,0,0,0.67347464,90.01056,88.310253)" /><ellipse
           style="display:block;opacity:1;fill:url(#radialGradient55722);fill-opacity:1;fill-rule:evenodd;stroke:#0091ea;stroke-width:1.33858967;stroke-linecap:round;stroke-linejoin:round;stroke-miterlimit:4;stroke-dasharray:1.3385897, 10.70871757;stroke-dashoffset:0;stroke-opacity:1;filter:url(#filter56012)"
           id="path55706"
           cx="190.67267"
           cy="316.64221"
           rx="22.979368"
           ry="16.792614"
           transform="matrix(0.67122603,0,0,0.67347464,90.01056,88.310253)" /><path
           style="display:block;opacity:1;fill:#bdbdbd;fill-opacity:1;fill-rule:evenodd;stroke:none;stroke-width:4;stroke-linecap:round;stroke-linejoin:round;stroke-miterlimit:4;stroke-dasharray:none;stroke-dashoffset:0;stroke-opacity:1;filter:url(#filter6857)"
           id="path7200"
           d="m 97.435275,266.68263 c 13.300425,-10.16968 14.553515,-32.08199 2.966795,-51.8781 -11.586747,-19.79612 -32.639282,-31.71138 -49.84256,-28.2098 -17.203279,3.5016 -25.547705,21.40037 -19.755702,42.37595 l 54.89752,-26.63553 z"
           inkscape:connector-curvature="0"
           sodipodi:nodetypes="cssccc"
           transform="matrix(0.67122603,0,0,0.67347464,90.01056,88.310253)" /><path
           sodipodi:nodetypes="csssccc"
           inkscape:connector-curvature="0"
           style="opacity:1;fill:#bdbdbd;fill-opacity:1;fill-rule:evenodd;stroke:none;stroke-width:4;stroke-linecap:round;stroke-linejoin:round;stroke-miterlimit:4;stroke-dasharray:none;stroke-dashoffset:0;stroke-opacity:1"
           id="path6812"
           d="m 344.34689,148.11608 c 6.71825,7.81359 4.72822,19.50792 -5.01344,29.46118 -9.74163,9.95327 -25.24232,16.12961 -39.05042,15.55989 -13.80811,-0.56972 -23.0993,-7.76895 -23.40704,-18.13685 -0.30775,-10.36791 8.4309,-21.78378 22.01504,-28.7597 l -0.76328,47.61975 z" /><ellipse
           style="opacity:1;fill:#00bcd4;fill-opacity:1;fill-rule:evenodd;stroke:none;stroke-width:0.89999998;stroke-linecap:round;stroke-linejoin:round;stroke-miterlimit:4;stroke-dasharray:0.89999998, 7.19999981;stroke-dashoffset:0;stroke-opacity:1"
           id="ellipse56042"
           cx="298.52792"
           cy="191.74054"
           rx="10.826706"
           ry="8.6308575" /><ellipse
           ry="8.6308575"
           rx="10.826706"
           cy="228.64488"
           cx="146.06416"
           id="ellipse56044"
           style="opacity:1;fill:#00bcd4;fill-opacity:1;fill-rule:evenodd;stroke:none;stroke-width:0.89999998;stroke-linecap:round;stroke-linejoin:round;stroke-miterlimit:4;stroke-dasharray:0.89999998, 7.19999981;stroke-dashoffset:0;stroke-opacity:1" /><path
           style="fill:none;fill-rule:evenodd;stroke:#9e9e9e;stroke-width:6.80000019;stroke-linecap:butt;stroke-linejoin:miter;stroke-miterlimit:4;stroke-dasharray:none;stroke-opacity:1"
           d="m 251.61992,145.42471 30.78297,-9.06715 11.93014,6.72396"
           id="path6147"
           inkscape:connector-curvature="0" /><path
           inkscape:connector-curvature="0"
           id="path6235"
           d="m 190.11123,153.92124 c 6.41811,-13.70879 16.18188,-10.45677 17.3591,-3.23857"
           style="fill:none;fill-rule:evenodd;stroke:#9e9e9e;stroke-width:6.80000019;stroke-linecap:butt;stroke-linejoin:miter;stroke-miterlimit:4;stroke-dasharray:none;stroke-opacity:1"
           sodipodi:nodetypes="cc" /><ellipse
           style="opacity:1;fill:#424242;fill-opacity:0.62882098;fill-rule:evenodd;stroke:none;stroke-width:6.80000019;stroke-linecap:round;stroke-linejoin:round;stroke-miterlimit:4;stroke-dasharray:none;stroke-dashoffset:0;stroke-opacity:1"
           id="path6261"
           cx="227.63759"
           cy="151.7328"
           rx="9.4808197"
           ry="8.690752" /><ellipse
           ry="27.066553"
           rx="26.116268"
           cy="119.41207"
           cx="244.1498"
           id="ellipse6145"
           style="opacity:1;fill:#b0bec5;fill-opacity:0.62882098;fill-rule:evenodd;stroke:#9e9e9e;stroke-width:3.50000167;stroke-linecap:round;stroke-linejoin:round;stroke-miterlimit:4;stroke-dasharray:none;stroke-dashoffset:0;stroke-opacity:1"
           transform="matrix(0.9929138,0.11883678,-0.11749745,0.99307318,0,0)" /><ellipse
           ry="8.690752"
           rx="9.4808197"
           cy="147.7328"
           cx="173.63759"
           id="ellipse6263"
           style="opacity:1;fill:#424242;fill-opacity:0.62882098;fill-rule:evenodd;stroke:none;stroke-width:6.80000019;stroke-linecap:round;stroke-linejoin:round;stroke-miterlimit:4;stroke-dasharray:none;stroke-dashoffset:0;stroke-opacity:1" /><ellipse
           style="opacity:1;fill:#b0bec5;fill-opacity:0.62745098;fill-rule:evenodd;stroke:#9e9e9e;stroke-width:3.50059557;stroke-linecap:round;stroke-linejoin:round;stroke-miterlimit:4;stroke-dasharray:none;stroke-dashoffset:0;stroke-opacity:1"
           id="ellipse6231"
           cx="190.80278"
           cy="124.80668"
           rx="25.026487"
           ry="23.155579"
           inkscape:transform-center-x="10.895128"
           inkscape:transform-center-y="-2.7516041"
           transform="matrix(0.99437673,0.10590049,-0.13180564,0.99127558,0,0)" /></g></g></g></svg>